<?xml version="1.0" encoding="UTF-8"?>
<svg version="1.1" xmlns="http://www.w3.org/2000/svg" width="1536" height="526">
<rect width="1536" height="526" fill="#fff"/>
<path d="M0,0 L1258,0 L1258,8 L1259,8 L1259,0 L1261,0 L1261,1 L1262,1 L1262,3 L1261,3 L1261,5 L1262,5 L1262,10 L1261,10 L1261,7 L1260,7 L1260,16 L1259,16 L1259,15 L1258,15 L1258,18 L1259,18 L1259,19 L1258,19 L1258,21 L1259,21 L1259,26 L1258,26 L1258,27 L1259,27 L1259,28 L1258,28 L1258,31 L1257,31 L1257,29 L1256,29 L1256,31 L1255,31 L1255,32 L1253,32 L1253,33 L1252,33 L1252,34 L1254,34 L1254,36 L1257,36 L1257,38 L1256,38 L1256,37 L1255,37 L1255,38 L1254,38 L1254,43 L1256,43 L1256,44 L1257,44 L1257,43 L1269,43 L1269,42 L1270,42 L1270,14 L1327,14 L1327,15 L1328,15 L1328,14 L1338,14 L1338,15 L1339,15 L1339,14 L1340,14 L1340,15 L1348,15 L1348,1 L1355,1 L1355,0 L1356,0 L1356,1 L1359,1 L1359,2 L1360,2 L1360,3 L1359,3 L1359,4 L1360,4 L1360,13 L1368,13 L1368,14 L1369,14 L1369,13 L1373,13 L1373,12 L1374,12 L1374,11 L1373,11 L1373,10 L1374,10 L1374,9 L1373,9 L1373,8 L1374,8 L1374,6 L1373,6 L1373,1 L1401,1 L1401,0 L1536,0 L1536,526 L0,526 L0,386 L23,386 L23,372 L24,372 L24,371 L23,371 L23,362 L24,362 L24,361 L32,361 L32,362 L36,362 L36,333 L48,333 L48,332 L49,332 L49,331 L48,331 L48,330 L49,330 L49,329 L48,329 L48,328 L49,328 L49,321 L48,321 L48,320 L0,320 L0,278 L9,278 L9,264 L8,264 L8,263 L14,263 L14,262 L12,262 L12,260 L15,260 L15,261 L16,261 L16,260 L17,260 L17,261 L20,261 L20,259 L19,259 L19,256 L20,256 L20,255 L21,255 L21,254 L17,254 L17,253 L16,253 L16,255 L15,255 L15,254 L14,254 L14,253 L11,253 L11,254 L8,254 L8,253 L0,253 L0,252 L15,252 L15,251 L0,251 L0,222 L8,222 L8,219 L9,219 L9,218 L8,218 L8,215 L9,215 L9,209 L0,209 L0,182 L7,182 L7,181 L22,181 L22,169 L20,169 L20,168 L17,168 L17,167 L16,167 L16,168 L9,168 L9,169 L7,169 L7,168 L6,168 L6,169 L5,169 L5,168 L0,168 L0,98 L8,98 L8,99 L9,99 L9,98 L10,98 L10,99 L11,99 L11,110 L12,110 L12,111 L16,111 L16,112 L17,112 L17,111 L18,111 L18,112 L22,112 L22,111 L23,111 L23,85 L22,85 L22,84 L21,84 L21,83 L20,83 L20,84 L17,84 L17,83 L12,83 L12,84 L11,84 L11,83 L10,83 L10,81 L11,81 L11,70 L12,70 L12,69 L11,69 L11,68 L10,68 L10,67 L8,67 L8,68 L0,68 L0,66 L1,66 L1,65 L0,65 L0,63 L1,63 L1,62 L0,62 Z M1446,6 L1446,7 L1447,7 L1447,6 Z M1258,9 L1258,10 L1259,10 L1259,9 Z M782,15 L782,16 L781,16 L781,17 L782,17 L782,21 L781,21 L781,22 L782,22 L782,23 L781,23 L781,30 L780,30 L780,29 L778,29 L778,30 L777,30 L777,29 L728,29 L728,30 L727,30 L727,44 L728,44 L728,46 L727,46 L727,53 L728,53 L728,57 L729,57 L729,58 L781,58 L781,68 L782,68 L782,71 L783,71 L783,72 L799,72 L799,71 L805,71 L805,58 L806,58 L806,57 L814,57 L814,58 L816,58 L816,57 L817,57 L817,58 L818,58 L818,57 L819,57 L819,55 L820,55 L820,47 L819,47 L819,46 L820,46 L820,45 L819,45 L819,43 L820,43 L820,42 L816,42 L816,43 L814,43 L814,41 L816,41 L816,40 L817,40 L817,39 L816,39 L816,38 L815,38 L815,40 L812,40 L812,41 L813,41 L813,42 L812,42 L812,43 L811,43 L811,42 L808,42 L808,41 L806,41 L806,31 L805,31 L805,30 L814,30 L814,31 L819,31 L819,30 L820,30 L820,28 L819,28 L819,18 L818,18 L818,15 Z M830,16 L830,17 L831,17 L831,16 Z M821,17 L821,19 L822,19 L822,17 Z M824,18 L824,19 L825,19 L825,18 Z M830,18 L830,23 L831,23 L831,18 Z M1456,19 L1456,22 L1454,22 L1454,23 L1456,23 L1456,25 L1458,25 L1458,27 L1459,27 L1459,22 L1458,22 L1458,21 L1457,21 L1457,19 Z M821,20 L821,21 L822,21 L822,20 Z M823,20 L823,21 L824,21 L824,20 Z M826,20 L826,21 L827,21 L827,20 Z M1447,21 L1447,23 L1448,23 L1448,22 L1449,22 L1449,21 Z M1453,24 L1453,25 L1454,25 L1454,24 Z M1448,25 L1448,26 L1449,26 L1449,25 Z M830,26 L830,29 L831,29 L831,26 Z M1455,28 L1455,29 L1456,29 L1456,28 Z M823,29 L823,30 L824,30 L824,29 Z M1359,29 L1359,44 L1360,44 L1360,51 L1359,51 L1359,52 L1358,52 L1358,53 L1359,53 L1359,54 L1360,54 L1360,55 L1359,55 L1359,57 L1360,57 L1360,59 L1361,59 L1361,69 L1360,69 L1360,67 L1358,67 L1358,68 L1357,68 L1357,70 L1356,70 L1356,71 L1349,71 L1349,68 L1348,68 L1348,66 L1349,66 L1349,64 L1350,64 L1350,65 L1351,65 L1351,63 L1349,63 L1349,62 L1348,62 L1348,58 L1322,58 L1322,69 L1323,69 L1323,70 L1322,70 L1322,71 L1308,71 L1308,85 L1297,85 L1297,70 L1296,70 L1296,71 L1283,71 L1283,57 L1281,57 L1281,58 L1274,58 L1274,57 L1256,57 L1256,58 L1257,58 L1257,60 L1256,60 L1256,70 L1253,70 L1253,71 L1252,71 L1252,73 L1253,73 L1253,72 L1254,72 L1254,71 L1256,71 L1256,72 L1261,72 L1261,73 L1263,73 L1263,72 L1264,72 L1264,73 L1269,73 L1269,74 L1264,74 L1264,76 L1268,76 L1268,75 L1269,75 L1269,79 L1268,79 L1268,80 L1267,80 L1267,82 L1266,82 L1266,84 L1269,84 L1269,86 L1282,86 L1282,87 L1283,87 L1283,99 L1286,99 L1286,100 L1288,100 L1288,99 L1290,99 L1290,100 L1296,100 L1296,116 L1295,116 L1295,117 L1296,117 L1296,118 L1295,118 L1295,127 L1296,127 L1296,128 L1295,128 L1295,129 L1296,129 L1296,142 L1299,142 L1299,141 L1304,141 L1304,142 L1306,142 L1306,141 L1309,141 L1309,146 L1308,146 L1308,147 L1309,147 L1309,149 L1306,149 L1306,157 L1308,157 L1308,154 L1307,154 L1307,152 L1308,152 L1308,150 L1309,150 L1309,159 L1308,159 L1308,161 L1309,161 L1309,163 L1308,163 L1308,164 L1309,164 L1309,169 L1322,169 L1322,154 L1334,154 L1334,153 L1336,153 L1336,151 L1337,151 L1337,150 L1336,150 L1336,148 L1335,148 L1335,147 L1336,147 L1336,146 L1337,146 L1337,145 L1336,145 L1336,143 L1337,143 L1337,142 L1336,142 L1336,140 L1344,140 L1344,141 L1345,141 L1345,140 L1347,140 L1347,141 L1349,141 L1349,142 L1350,142 L1350,141 L1352,141 L1352,140 L1348,140 L1348,127 L1344,127 L1344,126 L1322,126 L1322,138 L1321,138 L1321,140 L1312,140 L1312,141 L1311,141 L1311,140 L1309,140 L1309,123 L1310,123 L1310,122 L1309,122 L1309,113 L1317,113 L1317,112 L1321,112 L1321,111 L1322,111 L1322,98 L1323,98 L1323,99 L1324,99 L1324,94 L1323,94 L1323,95 L1322,95 L1322,91 L1323,91 L1323,90 L1324,90 L1324,88 L1322,88 L1322,87 L1323,87 L1323,86 L1326,86 L1326,88 L1327,88 L1327,86 L1330,86 L1330,87 L1331,87 L1331,86 L1337,86 L1337,85 L1338,85 L1338,84 L1336,84 L1336,79 L1338,79 L1338,78 L1336,78 L1336,77 L1340,77 L1340,76 L1337,76 L1337,75 L1343,75 L1343,73 L1341,73 L1341,72 L1345,72 L1345,73 L1347,73 L1347,74 L1344,74 L1344,76 L1347,76 L1347,95 L1348,95 L1348,96 L1344,96 L1344,97 L1347,97 L1347,98 L1336,98 L1336,99 L1335,99 L1335,101 L1336,101 L1336,106 L1335,106 L1335,108 L1336,108 L1336,112 L1348,112 L1348,111 L1349,111 L1349,107 L1351,107 L1351,106 L1350,106 L1350,105 L1351,105 L1351,100 L1349,100 L1349,99 L1361,99 L1361,101 L1360,101 L1360,102 L1361,102 L1361,111 L1380,111 L1380,112 L1386,112 L1386,116 L1387,116 L1387,124 L1386,124 L1386,125 L1382,125 L1382,126 L1374,126 L1374,139 L1361,139 L1361,140 L1360,140 L1360,149 L1359,149 L1359,150 L1360,150 L1360,154 L1416,154 L1416,153 L1417,153 L1417,152 L1416,152 L1416,151 L1413,151 L1413,150 L1415,150 L1415,146 L1414,146 L1414,147 L1413,147 L1413,142 L1414,142 L1414,138 L1413,138 L1413,126 L1408,126 L1408,125 L1407,125 L1407,124 L1406,124 L1406,125 L1405,125 L1405,124 L1401,124 L1401,123 L1402,123 L1402,122 L1401,122 L1401,121 L1402,121 L1402,118 L1401,118 L1401,117 L1402,117 L1402,116 L1401,116 L1401,110 L1400,110 L1400,111 L1399,111 L1399,110 L1398,110 L1398,108 L1396,108 L1396,111 L1394,111 L1394,110 L1393,110 L1393,109 L1395,109 L1395,108 L1392,108 L1392,107 L1388,107 L1388,101 L1389,101 L1389,100 L1388,100 L1388,98 L1391,98 L1391,101 L1392,101 L1392,98 L1393,98 L1393,97 L1391,97 L1391,94 L1388,94 L1388,93 L1387,93 L1387,89 L1391,89 L1391,88 L1392,88 L1392,87 L1393,87 L1393,85 L1400,85 L1400,96 L1398,96 L1398,98 L1399,98 L1399,97 L1400,97 L1400,99 L1401,99 L1401,100 L1404,100 L1404,99 L1405,99 L1405,100 L1408,100 L1408,101 L1411,101 L1411,102 L1413,102 L1413,110 L1412,110 L1412,111 L1413,111 L1413,117 L1412,117 L1412,125 L1419,125 L1419,126 L1420,126 L1420,127 L1421,127 L1421,125 L1425,125 L1425,126 L1423,126 L1423,129 L1425,129 L1425,134 L1424,134 L1424,139 L1423,139 L1423,140 L1422,140 L1422,141 L1425,141 L1425,138 L1426,138 L1426,140 L1430,140 L1430,142 L1432,142 L1432,143 L1434,143 L1434,147 L1433,147 L1433,149 L1432,149 L1432,153 L1433,153 L1433,152 L1434,152 L1434,149 L1437,149 L1437,148 L1435,148 L1435,146 L1436,146 L1436,145 L1435,145 L1435,142 L1434,142 L1434,140 L1440,140 L1440,132 L1441,132 L1441,129 L1440,129 L1440,111 L1441,111 L1441,110 L1440,110 L1440,104 L1441,104 L1441,103 L1440,103 L1440,99 L1438,99 L1438,98 L1432,98 L1432,99 L1431,99 L1431,98 L1429,98 L1429,99 L1426,99 L1426,98 L1427,98 L1427,97 L1428,97 L1428,96 L1430,96 L1430,95 L1428,95 L1428,93 L1429,93 L1429,92 L1428,92 L1428,91 L1427,91 L1427,92 L1426,92 L1426,91 L1425,91 L1425,86 L1439,86 L1439,85 L1441,85 L1441,84 L1440,84 L1440,83 L1439,83 L1439,82 L1440,82 L1440,80 L1441,80 L1441,78 L1440,78 L1440,72 L1442,72 L1442,73 L1444,73 L1444,72 L1445,72 L1445,73 L1453,73 L1453,72 L1454,72 L1454,71 L1456,71 L1456,68 L1455,68 L1455,70 L1454,70 L1454,66 L1455,66 L1455,65 L1454,65 L1454,53 L1453,53 L1453,50 L1455,50 L1455,49 L1454,49 L1454,48 L1453,48 L1453,46 L1454,46 L1454,45 L1453,45 L1453,44 L1451,44 L1451,45 L1449,45 L1449,44 L1441,44 L1441,43 L1438,43 L1438,44 L1437,44 L1437,43 L1431,43 L1431,44 L1424,44 L1424,50 L1426,50 L1426,52 L1424,52 L1424,55 L1425,55 L1425,56 L1424,56 L1424,58 L1422,58 L1422,59 L1424,59 L1424,60 L1417,60 L1417,62 L1416,62 L1416,63 L1422,63 L1422,64 L1423,64 L1423,65 L1421,65 L1421,64 L1419,64 L1419,65 L1418,65 L1418,66 L1424,66 L1424,67 L1417,67 L1417,68 L1414,68 L1414,70 L1425,70 L1425,71 L1413,71 L1413,72 L1411,72 L1411,71 L1395,71 L1395,70 L1391,70 L1391,69 L1395,69 L1395,68 L1391,68 L1391,67 L1389,67 L1389,65 L1388,65 L1388,64 L1389,64 L1389,62 L1390,62 L1390,63 L1391,63 L1391,62 L1394,62 L1394,61 L1393,61 L1393,60 L1392,60 L1392,61 L1391,61 L1391,60 L1390,60 L1390,61 L1389,61 L1389,58 L1388,58 L1388,57 L1374,57 L1374,53 L1373,53 L1373,48 L1374,48 L1374,47 L1373,47 L1373,29 Z M1460,29 L1460,32 L1462,32 L1462,29 Z M571,30 L571,31 L572,31 L572,30 Z M589,29 L589,30 L573,30 L573,31 L579,31 L579,32 L581,32 L581,31 L582,31 L582,40 L581,40 L581,38 L580,38 L580,37 L581,37 L581,36 L580,36 L580,33 L576,33 L576,32 L573,32 L573,34 L571,34 L571,35 L576,35 L576,36 L573,36 L573,41 L572,41 L572,36 L571,36 L571,42 L574,42 L574,41 L575,41 L575,42 L578,42 L578,41 L577,41 L577,40 L576,40 L576,39 L579,39 L579,42 L581,42 L581,41 L582,41 L582,43 L570,43 L570,44 L569,44 L569,54 L570,54 L570,56 L571,56 L571,57 L595,57 L595,58 L596,58 L596,57 L597,57 L597,54 L598,54 L598,56 L600,56 L600,53 L599,53 L599,52 L602,52 L602,50 L606,50 L606,51 L605,51 L605,53 L608,53 L608,54 L601,54 L601,55 L607,55 L607,56 L601,56 L601,57 L615,57 L615,55 L616,55 L616,57 L622,57 L622,55 L617,55 L617,54 L622,54 L622,53 L621,53 L621,52 L622,52 L622,35 L621,35 L621,34 L622,34 L622,33 L621,33 L621,32 L619,32 L619,31 L623,31 L623,30 L614,30 L614,31 L616,31 L616,32 L618,32 L618,33 L608,33 L608,31 L612,31 L612,30 L606,30 L606,31 L607,31 L607,34 L606,34 L606,35 L605,35 L605,33 L604,33 L604,34 L603,34 L603,36 L604,36 L604,37 L601,37 L601,36 L600,36 L600,38 L599,38 L599,33 L598,33 L598,46 L600,46 L600,45 L601,45 L601,46 L602,46 L602,48 L600,48 L600,47 L598,47 L598,53 L596,53 L596,49 L597,49 L597,47 L596,47 L596,31 L597,31 L597,30 L592,30 L592,29 Z M598,30 L598,32 L599,32 L599,31 L603,31 L603,32 L604,32 L604,31 L605,31 L605,30 Z M722,30 L722,31 L725,31 L725,30 Z M1458,30 L1458,37 L1459,37 L1459,30 Z M807,31 L807,33 L808,33 L808,31 Z M1354,31 L1354,32 L1355,32 L1355,31 Z M1356,31 L1356,32 L1357,32 L1357,31 Z M1463,31 L1463,32 L1464,32 L1464,31 Z M571,32 L571,33 L572,33 L572,32 Z M599,32 L599,33 L600,33 L600,32 Z M724,32 L724,33 L725,33 L725,32 Z M600,33 L600,35 L601,35 L601,33 Z M811,33 L811,34 L814,34 L814,35 L816,35 L816,33 Z M817,33 L817,34 L818,34 L818,33 Z M1354,33 L1354,35 L1355,35 L1355,33 Z M1356,33 L1356,34 L1358,34 L1358,33 Z M1352,34 L1352,35 L1353,35 L1353,34 Z M714,35 L714,36 L715,36 L715,35 Z M723,35 L723,36 L724,36 L724,35 Z M807,36 L807,40 L808,40 L808,37 L809,37 L809,36 Z M817,36 L817,37 L818,37 L818,36 Z M823,36 L823,37 L824,37 L824,36 Z M1354,36 L1354,39 L1355,39 L1355,36 Z M1455,36 L1455,37 L1456,37 L1456,36 Z M719,37 L719,38 L718,38 L718,39 L720,39 L720,37 Z M809,38 L809,40 L811,40 L811,39 L810,39 L810,38 Z M725,39 L725,40 L726,40 L726,39 Z M825,39 L825,40 L826,40 L826,39 Z M1246,39 L1246,46 L1247,46 L1247,47 L1248,47 L1248,45 L1247,45 L1247,39 Z M1454,39 L1454,41 L1455,41 L1455,40 L1456,40 L1456,39 Z M1459,39 L1459,40 L1460,40 L1460,39 Z M714,40 L714,41 L715,41 L715,40 Z M1460,40 L1460,43 L1461,43 L1461,40 Z M1349,41 L1349,42 L1350,42 L1350,41 Z M830,43 L830,44 L831,44 L831,43 Z M1313,43 L1313,44 L1316,44 L1316,43 Z M1318,43 L1318,44 L1320,44 L1320,43 Z M1352,43 L1352,45 L1353,45 L1353,43 Z M839,44 L839,46 L840,46 L840,44 Z M852,44 L852,45 L853,45 L853,44 Z M1287,44 L1287,45 L1288,45 L1288,44 Z M1312,44 L1312,51 L1313,51 L1313,49 L1314,49 L1314,45 L1313,45 L1313,44 Z M1354,44 L1354,45 L1355,45 L1355,44 Z M1409,44 L1409,45 L1410,45 L1410,44 Z M835,45 L835,48 L837,48 L837,45 Z M1256,45 L1256,46 L1257,46 L1257,45 Z M1316,45 L1316,46 L1318,46 L1318,45 Z M1357,45 L1357,46 L1358,46 L1358,45 Z M1460,45 L1460,52 L1461,52 L1461,48 L1462,48 L1462,47 L1461,47 L1461,45 Z M15,46 L15,47 L16,47 L16,48 L15,48 L15,53 L14,53 L14,54 L15,54 L15,55 L14,55 L14,56 L17,56 L17,54 L20,54 L20,55 L21,55 L21,53 L22,53 L22,52 L21,52 L21,46 Z M840,46 L840,48 L839,48 L839,52 L840,52 L840,50 L842,50 L842,47 L841,47 L841,46 Z M850,46 L850,48 L852,48 L852,46 Z M1244,46 L1244,48 L1245,48 L1245,46 Z M1249,46 L1249,47 L1248,47 L1248,48 L1250,48 L1250,47 L1253,47 L1253,46 Z M1375,46 L1375,49 L1376,49 L1376,46 Z M1407,47 L1407,49 L1408,49 L1408,47 Z M846,48 L846,49 L845,49 L845,50 L842,50 L842,52 L844,52 L844,53 L845,53 L845,52 L846,52 L846,50 L847,50 L847,49 L848,49 L848,48 Z M1224,48 L1224,53 L1225,53 L1225,48 Z M1226,48 L1226,50 L1227,50 L1227,48 Z M852,49 L852,50 L853,50 L853,49 Z M849,50 L849,52 L848,52 L848,54 L850,54 L850,52 L852,52 L852,50 Z M1375,50 L1375,54 L1376,54 L1376,50 Z M11,51 L11,52 L12,52 L12,51 Z M1226,51 L1226,52 L1227,52 L1227,51 Z M1247,51 L1247,53 L1248,53 L1248,51 Z M1222,52 L1222,53 L1223,53 L1223,52 Z M1321,52 L1321,53 L1322,53 L1322,52 Z M1355,52 L1355,53 L1357,53 L1357,52 Z M1454,52 L1454,53 L1455,53 L1455,52 Z M8,53 L8,54 L9,54 L9,53 Z M836,53 L836,55 L837,55 L837,56 L839,56 L839,54 L837,54 L837,53 Z M840,53 L840,55 L842,55 L842,54 L841,54 L841,53 Z M1455,53 L1455,54 L1456,54 L1456,53 Z M829,54 L829,55 L830,55 L830,54 Z M844,54 L844,55 L847,55 L847,54 Z M1230,54 L1230,62 L1231,62 L1231,54 Z M1378,54 L1378,55 L1379,55 L1379,54 Z M1222,55 L1222,58 L1224,58 L1224,57 L1225,57 L1225,56 L1223,56 L1223,55 Z M1226,55 L1226,56 L1227,56 L1227,55 Z M1352,55 L1352,56 L1353,56 L1353,55 Z M1455,55 L1455,56 L1456,56 L1456,55 Z M842,56 L842,57 L843,57 L843,56 Z M18,57 L18,59 L19,59 L19,57 Z M1224,58 L1224,61 L1221,61 L1221,64 L1222,64 L1222,63 L1224,63 L1224,64 L1225,64 L1225,58 Z M1297,58 L1297,59 L1304,59 L1304,58 Z M1417,58 L1417,59 L1420,59 L1420,58 Z M1306,59 L1306,60 L1307,60 L1307,59 Z M1308,59 L1308,60 L1309,60 L1309,62 L1310,62 L1310,59 Z M1350,59 L1350,62 L1351,62 L1351,60 L1352,60 L1352,59 Z M1414,59 L1414,61 L1416,61 L1416,60 L1415,60 L1415,59 Z M1414,62 L1414,63 L1415,63 L1415,62 Z M1461,62 L1461,63 L1462,63 L1462,62 Z M1393,63 L1393,64 L1392,64 L1392,65 L1395,65 L1395,63 Z M9,64 L9,65 L10,65 L10,64 Z M1253,64 L1253,69 L1254,69 L1254,68 L1255,68 L1255,64 Z M1304,64 L1304,65 L1306,65 L1306,64 Z M1455,64 L1455,65 L1456,65 L1456,64 Z M6,65 L6,66 L8,66 L8,65 Z M12,65 L12,66 L13,66 L13,67 L14,67 L14,65 Z M1224,65 L1224,68 L1225,68 L1225,65 Z M1390,65 L1390,66 L1391,66 L1391,65 Z M15,67 L15,69 L16,69 L16,67 Z M1350,68 L1350,69 L1351,69 L1351,68 Z M1457,68 L1457,69 L1459,69 L1459,68 Z M1304,70 L1304,71 L1306,71 L1306,70 Z M1464,71 L1464,77 L1463,77 L1463,78 L1464,78 L1464,86 L1461,86 L1461,87 L1462,87 L1462,88 L1463,88 L1463,91 L1462,91 L1462,92 L1461,92 L1461,89 L1459,89 L1459,91 L1460,91 L1460,92 L1459,92 L1459,93 L1460,93 L1460,94 L1462,94 L1462,93 L1464,93 L1464,94 L1463,94 L1463,96 L1464,96 L1464,99 L1465,99 L1465,101 L1466,101 L1466,100 L1468,100 L1468,102 L1469,102 L1469,103 L1472,103 L1472,105 L1473,105 L1473,103 L1475,103 L1475,102 L1473,102 L1473,101 L1474,101 L1474,100 L1477,100 L1477,71 L1476,71 L1476,72 L1475,72 L1475,71 Z M1455,72 L1455,74 L1456,74 L1456,72 Z M1441,74 L1441,75 L1448,75 L1448,74 Z M1450,74 L1450,76 L1451,76 L1451,75 L1453,75 L1453,74 Z M1454,75 L1454,76 L1455,76 L1455,75 Z M1343,76 L1343,79 L1344,79 L1344,78 L1345,78 L1345,77 L1344,77 L1344,76 Z M1441,76 L1441,77 L1443,77 L1443,76 Z M1445,76 L1445,77 L1447,77 L1447,76 Z M1267,77 L1267,78 L1268,78 L1268,77 Z M1450,77 L1450,78 L1452,78 L1452,77 Z M1252,78 L1252,79 L1256,79 L1256,78 Z M1478,78 L1478,80 L1479,80 L1479,78 Z M1260,79 L1260,80 L1258,80 L1258,82 L1260,82 L1260,83 L1261,83 L1261,82 L1263,82 L1263,79 Z M1345,79 L1345,80 L1346,80 L1346,79 Z M1455,79 L1455,81 L1456,81 L1456,79 Z M1451,80 L1451,81 L1452,81 L1452,80 Z M1442,81 L1442,83 L1443,83 L1443,82 L1444,82 L1444,81 Z M1447,81 L1447,83 L1448,83 L1448,81 Z M1448,83 L1448,85 L1449,85 L1449,83 Z M1452,83 L1452,85 L1454,85 L1454,84 L1453,84 L1453,83 Z M1461,83 L1461,84 L1462,84 L1462,83 Z M1262,84 L1262,86 L1264,86 L1264,84 Z M1445,84 L1445,86 L1446,86 L1446,84 Z M1235,86 L1235,87 L1237,87 L1237,86 Z M1334,87 L1334,88 L1336,88 L1336,87 Z M1456,87 L1456,90 L1457,90 L1457,87 Z M1460,87 L1460,88 L1461,88 L1461,87 Z M1451,88 L1451,89 L1450,89 L1450,90 L1453,90 L1453,88 Z M1238,89 L1238,90 L1240,90 L1240,89 Z M1326,89 L1326,93 L1327,93 L1327,89 Z M1390,90 L1390,91 L1389,91 L1389,92 L1392,92 L1392,91 L1391,91 L1391,90 Z M1392,90 L1392,91 L1393,91 L1393,90 Z M1447,90 L1447,91 L1448,91 L1448,92 L1450,92 L1450,90 Z M1334,91 L1334,92 L1336,92 L1336,91 Z M1434,91 L1434,92 L1436,92 L1436,91 Z M1455,91 L1455,92 L1456,92 L1456,91 Z M1240,92 L1240,94 L1241,94 L1241,92 Z M1265,93 L1265,96 L1267,96 L1267,95 L1266,95 L1266,93 Z M1456,93 L1456,94 L1457,94 L1457,93 Z M1328,94 L1328,95 L1329,95 L1329,94 Z M1330,94 L1330,95 L1331,95 L1331,94 Z M1344,94 L1344,95 L1346,95 L1346,94 Z M1440,94 L1440,95 L1441,95 L1441,94 Z M1453,94 L1453,95 L1456,95 L1456,94 Z M1233,95 L1233,99 L1232,99 L1232,98 L1231,98 L1231,105 L1230,105 L1230,113 L1245,113 L1245,98 L1234,98 L1234,96 L1235,96 L1235,95 Z M1240,95 L1240,96 L1242,96 L1242,95 Z M1325,95 L1325,98 L1326,98 L1326,95 Z M1335,95 L1335,98 L1336,98 L1336,95 Z M1339,95 L1339,96 L1340,96 L1340,95 Z M1341,95 L1341,96 L1344,96 L1344,95 Z M1238,96 L1238,97 L1239,97 L1239,96 Z M1330,96 L1330,98 L1331,98 L1331,96 Z M1333,96 L1333,97 L1334,97 L1334,96 Z M1433,96 L1433,97 L1434,97 L1434,96 Z M1451,97 L1451,98 L1455,98 L1455,97 Z M1456,98 L1456,100 L1457,100 L1457,98 Z M261,99 L261,100 L258,100 L258,101 L259,101 L259,111 L258,111 L258,112 L245,112 L245,114 L244,114 L244,139 L232,139 L232,140 L231,140 L231,150 L232,150 L232,155 L192,155 L192,140 L181,140 L181,127 L176,127 L176,126 L155,126 L155,127 L153,127 L153,139 L148,139 L148,140 L128,140 L128,141 L127,141 L127,168 L129,168 L129,169 L130,169 L130,170 L131,170 L131,171 L132,171 L132,172 L133,172 L133,173 L134,173 L134,174 L135,174 L135,175 L136,175 L136,176 L137,176 L137,177 L138,177 L138,178 L140,178 L140,180 L141,180 L141,183 L166,183 L166,184 L167,184 L167,182 L179,182 L179,185 L180,185 L180,192 L179,192 L179,195 L166,195 L166,198 L165,198 L165,220 L166,220 L166,221 L165,221 L165,222 L169,222 L169,224 L170,224 L170,222 L171,222 L171,224 L172,224 L172,222 L174,222 L174,224 L175,224 L175,223 L176,223 L176,222 L179,222 L179,224 L180,224 L180,232 L179,232 L179,233 L180,233 L180,236 L187,236 L187,237 L189,237 L189,236 L191,236 L191,237 L192,237 L192,239 L193,239 L193,251 L211,251 L211,252 L212,252 L212,251 L217,251 L217,263 L216,263 L216,264 L217,264 L217,265 L228,265 L228,266 L231,266 L231,278 L243,278 L243,281 L244,281 L244,291 L243,291 L243,292 L244,292 L244,293 L246,293 L246,294 L259,294 L259,303 L258,303 L258,304 L259,304 L259,305 L260,305 L260,306 L280,306 L280,305 L284,305 L284,304 L283,304 L283,303 L284,303 L284,285 L285,285 L285,284 L284,284 L284,283 L285,283 L285,282 L284,282 L284,278 L272,278 L272,277 L271,277 L271,274 L272,274 L272,273 L271,273 L271,271 L272,271 L272,269 L271,269 L271,267 L272,267 L272,264 L294,264 L294,263 L297,263 L297,250 L286,250 L286,249 L283,249 L283,237 L272,237 L272,233 L271,233 L271,222 L284,222 L284,221 L295,221 L295,222 L298,222 L298,236 L300,236 L300,237 L310,237 L310,264 L311,264 L311,263 L312,263 L312,264 L319,264 L319,263 L323,263 L323,258 L324,258 L324,256 L323,256 L323,247 L324,247 L324,242 L325,242 L325,244 L328,244 L328,243 L326,243 L326,238 L327,238 L327,240 L329,240 L329,239 L330,239 L330,238 L332,238 L332,237 L336,237 L336,223 L335,223 L335,224 L331,224 L331,223 L329,223 L329,224 L324,224 L324,223 L323,223 L323,210 L322,210 L322,209 L309,209 L309,195 L322,195 L322,194 L323,194 L323,196 L324,196 L324,208 L337,208 L337,212 L338,212 L338,215 L337,215 L337,221 L338,221 L338,222 L350,222 L350,223 L351,223 L351,232 L352,232 L352,233 L355,233 L355,234 L352,234 L352,235 L355,235 L355,236 L362,236 L362,235 L364,235 L364,208 L363,208 L363,209 L351,209 L351,208 L350,208 L350,184 L351,184 L351,182 L352,182 L352,181 L365,181 L365,177 L366,177 L366,176 L368,176 L368,174 L367,174 L367,175 L366,175 L366,173 L367,173 L367,172 L364,172 L364,170 L368,170 L368,169 L364,169 L364,145 L365,145 L365,144 L364,144 L364,140 L360,140 L360,139 L351,139 L351,127 L347,127 L347,126 L343,126 L343,127 L340,127 L340,126 L337,126 L337,113 L336,113 L336,112 L312,112 L312,113 L311,113 L311,112 L310,112 L310,113 L299,113 L299,112 L284,112 L284,111 L283,111 L283,99 L263,99 L263,100 L262,100 L262,99 Z M1260,99 L1260,101 L1261,101 L1261,99 Z M1265,100 L1265,102 L1266,102 L1266,100 Z M1352,100 L1352,102 L1353,102 L1353,100 Z M1457,102 L1457,108 L1456,108 L1456,109 L1458,109 L1458,106 L1459,106 L1459,105 L1458,105 L1458,102 Z M1461,102 L1461,103 L1462,103 L1462,102 Z M1463,102 L1463,103 L1464,103 L1464,102 Z M1264,103 L1264,104 L1265,104 L1265,103 Z M1392,103 L1392,104 L1393,104 L1393,103 Z M1410,103 L1410,105 L1412,105 L1412,103 Z M1466,104 L1466,105 L1467,105 L1467,106 L1468,106 L1468,104 Z M1460,105 L1460,109 L1461,109 L1461,108 L1462,108 L1462,107 L1461,107 L1461,105 Z M1471,105 L1471,106 L1472,106 L1472,105 Z M1264,106 L1264,107 L1265,107 L1265,106 Z M1408,106 L1408,108 L1409,108 L1409,106 Z M1468,106 L1468,108 L1469,108 L1469,107 L1470,107 L1470,106 Z M1463,107 L1463,109 L1464,109 L1464,108 L1465,108 L1465,107 Z M1410,109 L1410,110 L1411,110 L1411,109 Z M1258,110 L1258,111 L1262,111 L1262,110 Z M1403,112 L1403,113 L1404,113 L1404,112 Z M1258,113 L1258,114 L1259,114 L1259,113 Z M1266,113 L1266,114 L1267,114 L1267,113 Z M1246,114 L1246,115 L1248,115 L1248,114 Z M1256,114 L1256,117 L1257,117 L1257,119 L1259,119 L1259,117 L1261,117 L1261,118 L1263,118 L1263,116 L1264,116 L1264,114 L1263,114 L1263,115 L1261,115 L1261,114 L1260,114 L1260,116 L1257,116 L1257,114 Z M1265,114 L1265,115 L1266,115 L1266,114 Z M1406,114 L1406,115 L1407,115 L1407,114 Z M1458,114 L1458,115 L1459,115 L1459,114 Z M1280,115 L1280,116 L1282,116 L1282,115 Z M1246,116 L1246,117 L1248,117 L1248,116 Z M1249,116 L1249,117 L1251,117 L1251,116 Z M1253,116 L1253,117 L1255,117 L1255,116 Z M1268,116 L1268,118 L1271,118 L1271,119 L1272,119 L1272,117 L1270,117 L1270,116 Z M1279,116 L1279,117 L1280,117 L1280,116 Z M1264,117 L1264,118 L1265,118 L1265,117 Z M1273,117 L1273,119 L1274,119 L1274,118 L1275,118 L1275,117 Z M1291,117 L1291,118 L1292,118 L1292,117 Z M1406,117 L1406,118 L1407,118 L1407,117 Z M1246,118 L1246,119 L1245,119 L1245,120 L1246,120 L1246,121 L1247,121 L1247,120 L1248,120 L1248,118 Z M1278,118 L1278,120 L1279,120 L1279,118 Z M1280,118 L1280,119 L1281,119 L1281,118 Z M1292,118 L1292,125 L1293,125 L1293,118 Z M71,119 L71,120 L72,120 L72,119 Z M1255,119 L1255,120 L1256,120 L1256,119 Z M1289,119 L1289,122 L1290,122 L1290,119 Z M1403,119 L1403,120 L1404,120 L1404,119 Z M1406,122 L1406,123 L1407,123 L1407,122 Z M1278,123 L1278,124 L1279,124 L1279,123 Z M1408,123 L1408,124 L1409,124 L1409,123 Z M1277,124 L1277,125 L1278,125 L1278,124 Z M1289,124 L1289,126 L1290,126 L1290,124 Z M1262,125 L1262,126 L1263,126 L1263,125 Z M1269,126 L1269,127 L1270,127 L1270,126 Z M1274,126 L1274,127 L1275,127 L1275,126 Z M1276,126 L1276,127 L1277,127 L1277,126 Z M1278,126 L1278,127 L1279,127 L1279,126 Z M1414,126 L1414,127 L1415,127 L1415,126 Z M1261,127 L1261,128 L1263,128 L1263,127 Z M1275,127 L1275,130 L1276,130 L1276,127 Z M1273,128 L1273,130 L1274,130 L1274,128 Z M1277,128 L1277,130 L1278,130 L1278,128 Z M1279,128 L1279,130 L1278,130 L1278,132 L1279,132 L1279,131 L1280,131 L1280,128 Z M1416,128 L1416,129 L1417,129 L1417,128 Z M1414,129 L1414,133 L1415,133 L1415,129 Z M1267,130 L1267,131 L1268,131 L1268,130 Z M1271,130 L1271,132 L1272,132 L1272,130 Z M1274,130 L1274,132 L1275,132 L1275,130 Z M1276,130 L1276,132 L1277,132 L1277,130 Z M1456,130 L1456,132 L1457,132 L1457,130 Z M1280,131 L1280,132 L1281,132 L1281,131 Z M1288,131 L1288,133 L1289,133 L1289,131 Z M1447,131 L1447,132 L1448,132 L1448,131 Z M1275,133 L1275,134 L1276,134 L1276,133 Z M1277,133 L1277,134 L1278,134 L1278,133 Z M1263,134 L1263,135 L1264,135 L1264,134 Z M1282,134 L1282,135 L1284,135 L1284,134 Z M1415,134 L1415,139 L1416,139 L1416,134 Z M1449,134 L1449,136 L1450,136 L1450,134 Z M1278,135 L1278,136 L1279,136 L1279,135 Z M1452,135 L1452,136 L1453,136 L1453,135 Z M1292,136 L1292,137 L1293,137 L1293,136 Z M1447,136 L1447,138 L1448,138 L1448,136 Z M1445,138 L1445,139 L1446,139 L1446,138 Z M1271,139 L1271,140 L1272,140 L1272,139 Z M1427,141 L1427,142 L1428,142 L1428,141 Z M1445,140 L1445,141 L1443,141 L1443,142 L1446,142 L1446,140 Z M1448,141 L1448,142 L1449,142 L1449,141 Z M1350,142 L1350,143 L1349,143 L1349,144 L1354,144 L1354,143 L1352,143 L1352,142 Z M1284,143 L1284,144 L1285,144 L1285,143 Z M1422,143 L1422,145 L1423,145 L1423,143 Z M1431,143 L1431,145 L1432,145 L1432,143 Z M1280,145 L1280,146 L1281,146 L1281,145 Z M1287,146 L1287,147 L1288,147 L1288,146 Z M1354,146 L1354,147 L1356,147 L1356,146 Z M1422,147 L1422,148 L1423,148 L1423,147 Z M1280,148 L1280,149 L1281,149 L1281,148 Z M1295,149 L1295,150 L1296,150 L1296,149 Z M1356,149 L1356,150 L1357,150 L1357,149 Z M1297,153 L1297,156 L1298,156 L1298,155 L1299,155 L1299,154 L1298,154 L1298,153 Z M17,155 L17,156 L21,156 L21,155 Z M22,155 L22,156 L32,156 L32,155 Z M499,155 L499,156 L500,156 L500,155 Z M503,155 L503,156 L504,156 L504,155 Z M1430,155 L1430,156 L1432,156 L1432,155 Z M48,156 L48,157 L96,157 L96,158 L97,158 L97,157 L98,157 L98,156 Z M99,156 L99,157 L101,157 L101,156 Z M1298,157 L1298,159 L1299,159 L1299,157 Z M1413,157 L1413,158 L1414,158 L1414,157 Z M1424,157 L1424,158 L1427,158 L1427,157 Z M29,158 L29,159 L24,159 L24,160 L28,160 L28,162 L24,162 L24,163 L25,163 L25,164 L28,164 L28,166 L29,166 L29,167 L28,167 L28,168 L32,168 L32,167 L37,167 L37,168 L48,168 L48,166 L50,166 L50,167 L49,167 L49,168 L51,168 L51,166 L53,166 L53,168 L54,168 L54,169 L55,169 L55,167 L56,167 L56,168 L80,168 L80,167 L72,167 L72,166 L79,166 L79,165 L78,165 L78,163 L84,163 L84,164 L86,164 L86,165 L88,165 L88,164 L91,164 L91,162 L88,162 L88,160 L87,160 L87,159 L86,159 L86,160 L85,160 L85,159 L79,159 L79,158 L76,158 L76,159 L72,159 L72,158 L70,158 L70,159 L69,159 L69,160 L68,160 L68,159 L67,159 L67,158 L66,158 L66,159 L65,159 L65,158 L64,158 L64,160 L63,160 L63,158 L60,158 L60,159 L57,159 L57,160 L54,160 L54,159 L53,159 L53,158 L51,158 L51,159 L50,159 L50,160 L48,160 L48,158 L40,158 L40,159 L38,159 L38,161 L35,161 L35,160 L34,160 L34,159 L32,159 L32,158 Z M1274,158 L1274,159 L1276,159 L1276,158 Z M94,158 L94,159 L88,159 L88,160 L89,160 L89,161 L93,161 L93,165 L95,165 L95,164 L97,164 L97,161 L98,161 L98,160 L97,160 L97,159 L96,159 L96,158 Z M98,159 L98,160 L99,160 L99,159 Z M20,160 L20,161 L19,161 L19,162 L20,162 L20,163 L23,163 L23,161 L21,161 L21,160 Z M1306,160 L1306,161 L1307,161 L1307,160 Z M1428,162 L1428,163 L1429,163 L1429,162 Z M98,163 L98,164 L99,164 L99,163 Z M1306,163 L1306,165 L1307,165 L1307,163 Z M1290,164 L1290,166 L1291,166 L1291,164 Z M1295,164 L1295,166 L1294,166 L1294,167 L1292,167 L1292,168 L1296,168 L1296,166 L1297,166 L1297,164 Z M88,165 L88,166 L91,166 L91,165 Z M1281,165 L1281,168 L1282,168 L1282,165 Z M1285,165 L1285,166 L1284,166 L1284,167 L1286,167 L1286,165 Z M19,166 L19,167 L20,167 L20,166 Z M23,166 L23,167 L24,167 L24,166 Z M24,167 L24,168 L26,168 L26,167 Z M1298,167 L1298,169 L1299,169 L1299,167 Z M1302,167 L1302,169 L1303,169 L1303,167 Z M1429,167 L1429,168 L1431,168 L1431,167 Z M1305,168 L1305,169 L1306,169 L1306,168 Z M1336,168 L1336,169 L1324,169 L1324,170 L1322,170 L1322,182 L1344,182 L1344,181 L1348,181 L1348,180 L1349,180 L1349,179 L1348,179 L1348,177 L1349,177 L1349,176 L1348,176 L1348,171 L1349,171 L1349,172 L1350,172 L1350,170 L1348,170 L1348,168 Z M1384,169 L1384,170 L1385,170 L1385,169 Z M1409,169 L1409,170 L1411,170 L1411,169 Z M394,171 L394,172 L395,172 L395,171 Z M1368,171 L1368,172 L1369,172 L1369,171 Z M1375,171 L1375,172 L1376,172 L1376,171 Z M1383,171 L1383,172 L1385,172 L1385,171 Z M534,172 L534,173 L535,173 L535,172 Z M1376,172 L1376,174 L1378,174 L1378,173 L1377,173 L1377,172 Z M1388,172 L1388,173 L1390,173 L1390,172 Z M1408,172 L1408,173 L1409,173 L1409,172 Z M370,173 L370,176 L369,176 L369,177 L368,177 L368,179 L371,179 L371,178 L373,178 L373,176 L374,176 L374,174 L373,174 L373,173 Z M1382,173 L1382,175 L1384,175 L1384,173 Z M534,174 L534,175 L535,175 L535,174 Z M1387,174 L1387,175 L1392,175 L1392,174 Z M1408,174 L1408,175 L1409,175 L1409,174 Z M1411,174 L1411,177 L1413,177 L1413,175 L1412,175 L1412,174 Z M1409,175 L1409,176 L1410,176 L1410,175 Z M1354,177 L1354,178 L1356,178 L1356,177 Z M1409,177 L1409,180 L1410,180 L1410,177 Z M1305,178 L1305,179 L1306,179 L1306,178 Z M1350,178 L1350,180 L1352,180 L1352,179 L1351,179 L1351,178 Z M367,179 L367,180 L368,180 L368,179 Z M1369,180 L1369,181 L1371,181 L1371,180 Z M1373,180 L1373,181 L1375,181 L1375,180 Z M24,183 L24,196 L9,196 L9,197 L10,197 L10,206 L11,206 L11,205 L14,205 L14,206 L12,206 L12,207 L10,207 L10,208 L33,208 L33,206 L34,206 L34,208 L36,208 L36,196 L37,196 L37,195 L38,195 L38,194 L48,194 L48,193 L49,193 L49,194 L52,194 L52,191 L54,191 L54,192 L53,192 L53,193 L54,193 L54,194 L77,194 L77,195 L80,195 L80,198 L81,198 L81,195 L82,195 L82,194 L84,194 L84,195 L83,195 L83,197 L85,197 L85,194 L87,194 L87,195 L88,195 L88,197 L87,197 L87,198 L86,198 L86,200 L85,200 L85,201 L84,201 L84,202 L82,202 L82,201 L81,201 L81,200 L80,200 L80,199 L79,199 L79,203 L80,203 L80,204 L81,204 L81,205 L82,205 L82,206 L84,206 L84,205 L86,205 L86,206 L91,206 L91,205 L92,205 L92,206 L93,206 L93,207 L77,207 L77,208 L94,208 L94,207 L96,207 L96,206 L97,206 L97,200 L96,200 L96,199 L97,199 L97,198 L96,198 L96,197 L100,197 L100,194 L101,194 L101,192 L106,192 L106,191 L107,191 L107,192 L109,192 L109,193 L108,193 L108,194 L111,194 L111,193 L110,193 L110,192 L111,192 L111,191 L108,191 L108,189 L110,189 L110,190 L112,190 L112,188 L111,188 L111,187 L110,187 L110,188 L109,188 L109,187 L108,187 L108,184 L107,184 L107,183 L92,183 L92,184 L91,184 L91,183 L36,183 L36,187 L37,187 L37,185 L39,185 L39,188 L34,188 L34,187 L35,187 L35,183 Z M109,184 L109,185 L110,185 L110,186 L112,186 L112,184 Z M513,187 L513,190 L514,190 L514,187 Z M488,188 L488,189 L489,189 L489,188 Z M488,191 L488,192 L490,192 L490,191 Z M832,191 L832,192 L833,192 L833,191 Z M821,192 L821,193 L822,193 L822,192 Z M830,192 L830,193 L832,193 L832,192 Z M102,193 L102,194 L106,194 L106,193 Z M170,193 L170,194 L176,194 L176,193 Z M504,193 L504,194 L505,194 L505,193 Z M409,195 L409,196 L410,196 L410,195 Z M464,194 L464,195 L460,195 L460,196 L456,196 L456,195 L454,195 L454,196 L452,196 L452,195 L449,195 L449,197 L448,197 L448,196 L443,196 L443,197 L446,197 L446,198 L445,198 L445,200 L446,200 L446,199 L449,199 L449,201 L447,201 L447,204 L450,204 L450,203 L448,203 L448,202 L454,202 L454,203 L452,203 L452,204 L454,204 L454,205 L460,205 L460,204 L461,204 L461,203 L463,203 L463,202 L464,202 L464,204 L466,204 L466,205 L467,205 L467,204 L470,204 L470,205 L469,205 L469,206 L472,206 L472,205 L475,205 L475,206 L474,206 L474,207 L449,207 L449,208 L479,208 L479,209 L480,209 L480,212 L481,212 L481,213 L480,213 L480,215 L479,215 L479,217 L480,217 L480,218 L479,218 L479,219 L480,219 L480,220 L479,220 L479,221 L480,221 L480,222 L484,222 L484,221 L485,221 L485,222 L497,222 L497,223 L501,223 L501,222 L503,222 L503,223 L504,223 L504,222 L506,222 L506,223 L510,223 L510,222 L512,222 L512,223 L528,223 L528,222 L529,222 L529,223 L532,223 L532,237 L545,237 L545,241 L546,241 L546,247 L547,247 L547,249 L582,249 L582,248 L583,248 L583,233 L584,233 L584,231 L583,231 L583,228 L584,228 L584,227 L583,227 L583,226 L584,226 L584,225 L583,225 L583,224 L584,224 L584,223 L545,223 L545,222 L544,222 L544,221 L543,221 L543,217 L544,217 L544,216 L543,216 L543,210 L544,210 L544,209 L491,209 L491,196 L490,196 L490,195 L489,195 L489,196 L487,196 L487,195 L486,195 L486,196 L484,196 L484,194 L483,194 L483,195 L482,195 L482,197 L481,197 L481,194 L480,194 L480,195 L465,195 L465,194 Z M792,194 L792,195 L779,195 L779,196 L770,196 L770,208 L769,208 L769,209 L731,209 L731,210 L717,210 L717,223 L715,223 L715,224 L713,224 L713,223 L712,223 L712,224 L707,224 L707,225 L714,225 L714,226 L712,226 L712,233 L720,233 L720,234 L712,234 L712,235 L720,235 L720,236 L740,236 L740,235 L741,235 L741,236 L742,236 L742,222 L768,222 L768,221 L769,221 L769,222 L770,222 L770,221 L771,221 L771,220 L772,220 L772,222 L780,222 L780,208 L847,208 L847,209 L848,209 L848,208 L858,208 L858,194 L845,194 L845,195 L841,195 L841,194 L840,194 L840,195 L835,195 L835,194 L828,194 L828,195 L825,195 L825,194 L824,194 L824,195 L794,195 L794,194 Z M923,195 L923,196 L922,196 L922,198 L923,198 L923,209 L922,209 L922,210 L921,210 L921,219 L920,219 L920,216 L919,216 L919,218 L918,218 L918,220 L921,220 L921,221 L919,221 L919,222 L934,222 L934,223 L936,223 L936,222 L944,222 L944,216 L943,216 L943,212 L945,212 L945,211 L944,211 L944,209 L940,209 L940,208 L939,208 L939,196 L937,196 L937,195 L936,195 L936,196 L935,196 L935,195 L925,195 L925,196 L924,196 L924,195 Z M1452,195 L1452,197 L1451,197 L1451,208 L1464,208 L1464,195 Z M77,196 L77,198 L78,198 L78,197 L79,197 L79,196 Z M424,196 L424,197 L425,197 L425,196 Z M432,196 L432,197 L438,197 L438,196 Z M98,198 L98,203 L99,203 L99,204 L98,204 L98,206 L99,206 L99,205 L100,205 L100,208 L101,208 L101,204 L100,204 L100,202 L99,202 L99,198 Z M860,198 L860,199 L861,199 L861,198 Z M76,199 L76,201 L77,201 L77,199 Z M408,199 L408,200 L409,200 L409,199 Z M411,199 L411,200 L413,200 L413,199 Z M409,200 L409,204 L411,204 L411,200 Z M419,201 L419,202 L420,202 L420,201 Z M444,201 L444,202 L445,202 L445,201 Z M434,202 L434,204 L436,204 L436,202 Z M76,204 L76,206 L77,206 L77,204 Z M408,204 L408,205 L409,205 L409,204 Z M429,204 L429,205 L430,205 L430,204 Z M442,204 L442,205 L443,205 L443,204 Z M462,205 L462,206 L464,206 L464,205 Z M96,207 L96,208 L97,208 L97,207 Z M98,207 L98,208 L99,208 L99,207 Z M424,207 L424,208 L425,208 L425,207 Z M428,207 L428,208 L431,208 L431,207 Z M447,207 L447,208 L448,208 L448,207 Z M144,208 L144,209 L141,209 L141,222 L140,222 L140,223 L138,223 L138,224 L137,224 L137,223 L132,223 L132,224 L127,224 L127,249 L126,249 L126,250 L119,250 L119,249 L116,249 L116,250 L114,250 L114,249 L113,249 L113,278 L102,278 L102,282 L101,282 L101,290 L102,290 L102,291 L101,291 L101,304 L89,304 L89,305 L88,305 L88,316 L89,316 L89,317 L88,317 L88,318 L91,318 L91,319 L101,319 L101,332 L102,332 L102,333 L107,333 L107,334 L108,334 L108,333 L110,333 L110,334 L112,334 L112,337 L113,337 L113,339 L112,339 L112,343 L113,343 L113,345 L112,345 L112,347 L113,347 L113,346 L114,346 L114,347 L115,347 L115,346 L117,346 L117,347 L118,347 L118,346 L119,346 L119,347 L120,347 L120,346 L128,346 L128,345 L140,345 L140,360 L144,360 L144,361 L154,361 L154,374 L153,374 L153,376 L163,376 L163,375 L164,375 L164,376 L166,376 L166,373 L167,373 L167,367 L166,367 L166,365 L167,365 L167,363 L166,363 L166,362 L167,362 L167,360 L166,360 L166,359 L167,359 L167,350 L168,350 L168,348 L171,348 L171,349 L176,349 L176,351 L177,351 L177,349 L178,349 L178,350 L179,350 L179,349 L180,349 L180,347 L181,347 L181,344 L183,344 L183,343 L181,343 L181,337 L182,337 L182,336 L192,336 L192,338 L193,338 L193,335 L194,335 L194,334 L193,334 L193,319 L207,319 L207,318 L208,318 L208,317 L207,317 L207,315 L208,315 L208,313 L207,313 L207,312 L205,312 L205,310 L206,310 L206,309 L205,309 L205,305 L204,305 L204,304 L200,304 L200,303 L199,303 L199,304 L198,304 L198,303 L197,303 L197,302 L196,302 L196,303 L195,303 L195,304 L194,304 L194,301 L193,301 L193,291 L181,291 L181,286 L182,286 L182,285 L181,285 L181,283 L182,283 L182,279 L181,279 L181,277 L182,277 L182,276 L183,276 L183,274 L182,274 L182,273 L181,273 L181,270 L182,270 L182,269 L181,269 L181,263 L176,263 L176,262 L175,262 L175,263 L168,263 L168,262 L166,262 L166,251 L165,251 L165,250 L153,250 L153,212 L152,212 L152,209 L148,209 L148,208 Z M860,208 L860,222 L876,222 L876,221 L873,221 L873,220 L874,220 L874,219 L875,219 L875,220 L876,220 L876,219 L877,219 L877,218 L876,218 L876,216 L877,216 L877,215 L876,215 L876,214 L875,214 L875,213 L880,213 L880,212 L874,212 L874,210 L875,210 L875,209 L872,209 L872,208 L863,208 L863,209 L862,209 L862,208 Z M64,209 L64,210 L65,210 L65,209 Z M70,209 L70,210 L72,210 L72,209 Z M877,209 L877,210 L880,210 L880,209 Z M51,210 L51,211 L53,211 L53,210 Z M55,210 L55,211 L64,211 L64,210 Z M74,210 L74,211 L76,211 L76,210 Z M599,211 L599,212 L600,212 L600,211 Z M950,211 L950,212 L951,212 L951,211 Z M53,212 L53,213 L54,213 L54,212 Z M70,211 L70,212 L65,212 L65,213 L66,213 L66,214 L64,214 L64,212 L60,212 L60,213 L58,213 L58,212 L56,212 L56,213 L54,213 L54,222 L53,222 L53,224 L51,224 L51,223 L50,223 L50,224 L48,224 L48,223 L40,223 L40,224 L37,224 L37,247 L38,247 L38,249 L62,249 L62,235 L68,235 L68,234 L62,234 L62,233 L63,233 L63,232 L64,232 L64,231 L61,231 L61,229 L63,229 L63,228 L62,228 L62,226 L60,226 L60,225 L59,225 L59,224 L67,224 L67,223 L68,223 L68,224 L69,224 L69,226 L68,226 L68,227 L67,227 L67,228 L70,228 L70,229 L74,229 L74,230 L72,230 L72,235 L76,235 L76,233 L78,233 L78,234 L77,234 L77,235 L88,235 L88,234 L79,234 L79,231 L80,231 L80,233 L88,233 L88,232 L87,232 L87,230 L89,230 L89,233 L95,233 L95,234 L89,234 L89,235 L98,235 L98,234 L97,234 L97,233 L98,233 L98,232 L101,232 L101,231 L99,231 L99,230 L101,230 L101,229 L99,229 L99,227 L97,227 L97,226 L98,226 L98,225 L97,225 L97,224 L88,224 L88,225 L96,225 L96,226 L88,226 L88,228 L86,228 L86,231 L85,231 L85,230 L83,230 L83,231 L82,231 L82,229 L81,229 L81,230 L77,230 L77,228 L73,228 L73,227 L72,227 L72,226 L75,226 L75,225 L72,225 L72,222 L76,222 L76,213 L74,213 L74,215 L75,215 L75,221 L72,221 L72,218 L73,218 L73,217 L72,217 L72,215 L73,215 L73,212 L72,212 L72,211 Z M968,213 L968,214 L969,214 L969,213 Z M919,214 L919,215 L920,215 L920,214 Z M960,214 L960,216 L961,216 L961,215 L962,215 L962,214 Z M965,214 L965,216 L966,216 L966,215 L968,215 L968,214 Z M52,215 L52,216 L53,216 L53,215 Z M952,215 L952,216 L953,216 L953,215 Z M955,215 L955,216 L957,216 L957,215 Z M964,216 L964,217 L965,217 L965,216 Z M51,218 L51,219 L52,219 L52,220 L53,220 L53,218 Z M50,220 L50,222 L53,222 L53,221 L52,221 L52,220 Z M961,220 L961,221 L962,221 L962,222 L964,222 L964,221 L963,221 L963,220 Z M968,222 L968,229 L969,229 L969,222 Z M73,223 L73,224 L76,224 L76,223 Z M77,223 L77,225 L80,225 L80,226 L76,226 L76,227 L78,227 L78,228 L79,228 L79,229 L80,229 L80,227 L82,227 L82,225 L85,225 L85,224 L80,224 L80,223 Z M393,222 L393,224 L392,224 L392,225 L393,225 L393,230 L392,230 L392,233 L393,233 L393,234 L395,234 L395,235 L392,235 L392,236 L432,236 L432,237 L431,237 L431,249 L432,249 L432,250 L440,250 L440,249 L454,249 L454,262 L472,262 L472,263 L483,263 L483,262 L491,262 L491,263 L492,263 L492,264 L491,264 L491,266 L493,266 L493,267 L491,267 L491,275 L494,275 L494,276 L496,276 L496,275 L504,275 L504,286 L505,286 L505,287 L506,287 L506,288 L504,288 L504,290 L520,290 L520,291 L571,291 L571,292 L572,292 L572,293 L571,293 L571,295 L572,295 L572,298 L571,298 L571,301 L572,301 L572,302 L571,302 L571,303 L572,303 L572,304 L583,304 L583,305 L584,305 L584,304 L585,304 L585,305 L590,305 L590,306 L586,306 L586,307 L588,307 L588,308 L592,308 L592,309 L588,309 L588,310 L587,310 L587,311 L588,311 L588,313 L589,313 L589,314 L588,314 L588,315 L590,315 L590,316 L592,316 L592,315 L594,315 L594,313 L592,313 L592,311 L594,311 L594,312 L595,312 L595,313 L597,313 L597,315 L595,315 L595,316 L596,316 L596,318 L597,318 L597,326 L600,326 L600,327 L601,327 L601,328 L604,328 L604,329 L600,329 L600,328 L598,328 L598,327 L597,327 L597,329 L599,329 L599,330 L606,330 L606,329 L607,329 L607,328 L609,328 L609,326 L610,326 L610,324 L612,324 L612,323 L613,323 L613,322 L611,322 L611,319 L609,319 L609,318 L610,318 L610,308 L609,308 L609,305 L596,305 L596,291 L593,291 L593,290 L583,290 L583,285 L584,285 L584,283 L583,283 L583,281 L584,281 L584,280 L583,280 L583,277 L584,277 L584,263 L578,263 L578,264 L575,264 L575,263 L574,263 L574,264 L557,264 L557,266 L558,266 L558,276 L557,276 L557,277 L531,277 L531,265 L530,265 L530,264 L531,264 L531,263 L506,263 L506,250 L491,250 L491,236 L467,236 L467,230 L466,230 L466,223 L465,223 L465,224 L464,224 L464,223 L406,223 L406,224 L405,224 L405,223 L398,223 L398,222 Z M633,223 L633,224 L634,224 L634,223 Z M641,222 L641,223 L636,223 L636,234 L637,234 L637,236 L636,236 L636,248 L635,248 L635,249 L636,249 L636,250 L637,250 L637,253 L636,253 L636,261 L640,261 L640,262 L649,262 L649,223 L643,223 L643,222 Z M99,224 L99,225 L101,225 L101,224 Z M1400,224 L1400,225 L1401,225 L1401,224 Z M1425,224 L1425,250 L1419,250 L1419,249 L1417,249 L1417,248 L1416,248 L1416,249 L1412,249 L1412,277 L1401,277 L1401,290 L1388,290 L1388,278 L1375,278 L1375,291 L1374,291 L1374,305 L1373,305 L1373,318 L1374,318 L1374,319 L1401,319 L1401,318 L1402,318 L1402,317 L1401,317 L1401,312 L1403,312 L1403,314 L1402,314 L1402,316 L1404,316 L1404,311 L1401,311 L1401,309 L1402,309 L1402,306 L1413,306 L1413,307 L1412,307 L1412,308 L1413,308 L1413,309 L1414,309 L1414,313 L1415,313 L1415,314 L1414,314 L1414,318 L1439,318 L1439,224 Z M86,225 L86,227 L87,227 L87,225 Z M1409,225 L1409,226 L1410,226 L1410,225 Z M63,226 L63,227 L64,227 L64,226 Z M83,226 L83,229 L85,229 L85,227 L84,227 L84,226 Z M708,226 L708,227 L707,227 L707,228 L710,228 L710,227 L711,227 L711,226 Z M999,226 L999,227 L1000,227 L1000,226 Z M64,227 L64,229 L65,229 L65,227 Z M943,227 L943,228 L944,228 L944,227 Z M959,227 L959,228 L960,228 L960,227 Z M588,228 L588,229 L592,229 L592,228 Z M1340,228 L1340,229 L1341,229 L1341,228 Z M1343,228 L1343,229 L1344,229 L1344,228 Z M63,229 L63,230 L64,230 L64,229 Z M613,229 L613,230 L614,230 L614,229 Z M704,229 L704,232 L705,232 L705,230 L707,230 L707,231 L708,231 L708,232 L711,232 L711,229 Z M1384,229 L1384,230 L1385,230 L1385,229 Z M589,230 L589,232 L592,232 L592,230 Z M622,230 L622,231 L625,231 L625,230 Z M942,230 L942,231 L944,231 L944,230 Z M1342,230 L1342,233 L1344,233 L1344,230 Z M65,231 L65,233 L67,233 L67,231 Z M69,231 L69,233 L71,233 L71,232 L70,232 L70,231 Z M1000,232 L1000,233 L1001,233 L1001,232 Z M100,233 L100,234 L99,234 L99,235 L101,235 L101,233 Z M69,234 L69,235 L71,235 L71,234 Z M1366,235 L1366,236 L1368,236 L1368,235 Z M966,236 L966,238 L965,238 L965,240 L966,240 L966,241 L965,241 L965,244 L966,244 L966,243 L967,243 L967,246 L966,246 L966,248 L965,248 L965,249 L968,249 L968,250 L988,250 L988,249 L989,249 L989,241 L988,241 L988,237 L981,237 L981,236 L968,236 L968,237 L967,237 L967,236 Z M1271,236 L1271,237 L1270,237 L1270,250 L1257,250 L1257,319 L1312,319 L1312,317 L1313,317 L1313,314 L1314,314 L1314,313 L1313,313 L1313,306 L1312,306 L1312,305 L1311,305 L1311,300 L1312,300 L1312,298 L1311,298 L1311,296 L1310,296 L1310,293 L1312,293 L1312,292 L1298,292 L1298,291 L1297,291 L1297,285 L1298,285 L1298,283 L1297,283 L1297,278 L1288,278 L1288,277 L1284,277 L1284,269 L1283,269 L1283,268 L1284,268 L1284,267 L1283,267 L1283,266 L1284,266 L1284,264 L1283,264 L1283,236 Z M808,236 L808,237 L783,237 L783,238 L770,238 L770,241 L769,241 L769,242 L770,242 L770,245 L769,245 L769,252 L768,252 L768,251 L744,251 L744,253 L743,253 L743,270 L742,270 L742,272 L743,272 L743,276 L746,276 L746,277 L756,277 L756,270 L757,270 L757,268 L758,268 L758,267 L757,267 L757,265 L756,265 L756,264 L757,264 L757,263 L760,263 L760,262 L761,262 L761,263 L764,263 L764,262 L765,262 L765,263 L808,263 L808,262 L819,262 L819,259 L820,259 L820,258 L819,258 L819,257 L820,257 L820,255 L819,255 L819,249 L832,249 L832,246 L833,246 L833,236 L819,236 L819,237 L816,237 L816,236 L815,236 L815,237 L809,237 L809,236 Z M1000,237 L1000,238 L1001,238 L1001,237 Z M1005,237 L1005,238 L1006,238 L1006,237 Z M327,241 L327,242 L328,242 L328,241 Z M992,245 L992,246 L993,246 L993,245 Z M325,246 L325,248 L326,248 L326,247 L328,247 L328,246 Z M167,247 L167,248 L168,248 L168,247 Z M584,249 L584,250 L583,250 L583,253 L584,253 L584,254 L583,254 L583,258 L584,258 L584,259 L583,259 L583,261 L584,261 L584,263 L597,263 L597,264 L599,264 L599,265 L597,265 L597,268 L598,268 L598,267 L600,267 L600,269 L597,269 L597,277 L608,277 L608,278 L611,278 L611,286 L610,286 L610,288 L611,288 L611,291 L623,291 L623,292 L622,292 L622,305 L635,305 L635,304 L636,304 L636,290 L649,290 L649,278 L632,278 L632,277 L623,277 L623,268 L624,268 L624,267 L623,267 L623,263 L622,263 L622,264 L620,264 L620,263 L619,263 L619,264 L618,264 L618,263 L617,263 L617,264 L616,264 L616,263 L613,263 L613,264 L611,264 L611,263 L609,263 L609,262 L610,262 L610,250 L593,250 L593,249 Z M325,250 L325,251 L326,251 L326,250 Z M379,250 L379,263 L385,263 L385,264 L388,264 L388,263 L391,263 L391,264 L392,264 L392,263 L400,263 L400,264 L401,264 L401,263 L402,263 L402,264 L404,264 L404,263 L406,263 L406,264 L407,264 L407,263 L408,263 L408,265 L410,265 L410,264 L415,264 L415,265 L416,265 L416,263 L419,263 L419,254 L420,254 L420,251 L418,251 L418,250 Z M941,250 L941,254 L940,254 L940,251 L939,251 L939,262 L940,262 L940,263 L939,263 L939,264 L938,264 L938,265 L936,265 L936,264 L927,264 L927,265 L926,265 L926,278 L925,278 L925,279 L924,279 L924,278 L922,278 L922,279 L916,279 L916,280 L917,280 L917,281 L915,281 L915,279 L914,279 L914,291 L913,291 L913,293 L912,293 L912,292 L879,292 L879,293 L878,293 L878,292 L877,292 L877,293 L876,293 L876,304 L877,304 L877,305 L876,305 L876,306 L870,306 L870,307 L871,307 L871,308 L868,308 L868,307 L869,307 L869,306 L867,306 L867,307 L866,307 L866,308 L859,308 L859,307 L864,307 L864,306 L848,306 L848,311 L847,311 L847,314 L848,314 L848,315 L847,315 L847,318 L848,318 L848,319 L862,319 L862,318 L864,318 L864,319 L869,319 L869,318 L870,318 L870,319 L873,319 L873,318 L913,318 L913,305 L921,305 L921,304 L922,304 L922,305 L926,305 L926,304 L927,304 L927,297 L926,297 L926,291 L934,291 L934,290 L938,290 L938,289 L937,289 L937,288 L938,288 L938,278 L944,278 L944,277 L945,277 L945,278 L949,278 L949,277 L958,277 L958,278 L959,278 L959,277 L963,277 L963,276 L964,276 L964,277 L965,277 L965,251 L952,251 L952,250 L951,250 L951,251 L950,251 L950,250 L945,250 L945,251 L944,251 L944,250 Z M16,251 L16,252 L18,252 L18,251 Z M20,251 L20,253 L21,253 L21,252 L22,252 L22,251 Z M23,251 L23,252 L24,252 L24,251 Z M1393,251 L1393,252 L1407,252 L1407,251 Z M193,252 L193,253 L194,253 L194,252 Z M196,252 L196,253 L197,253 L197,252 Z M206,252 L206,253 L207,253 L207,252 Z M875,252 L875,253 L877,253 L877,252 Z M900,251 L900,252 L880,252 L880,253 L881,253 L881,254 L875,254 L875,257 L874,257 L874,258 L875,258 L875,262 L874,262 L874,264 L873,264 L873,266 L874,266 L874,269 L873,269 L873,272 L874,272 L874,274 L873,274 L873,275 L874,275 L874,276 L900,276 L900,263 L901,263 L901,262 L904,262 L904,263 L912,263 L912,252 L911,252 L911,251 L908,251 L908,252 L904,252 L904,251 Z M215,253 L215,254 L216,254 L216,253 Z M27,254 L27,255 L29,255 L29,254 Z M167,254 L167,256 L168,256 L168,254 Z M23,255 L23,261 L25,261 L25,260 L27,260 L27,261 L29,261 L29,257 L27,257 L27,259 L25,259 L25,258 L24,258 L24,257 L25,257 L25,255 Z M31,255 L31,257 L32,257 L32,255 Z M33,256 L33,257 L32,257 L32,258 L33,258 L33,259 L34,259 L34,256 Z M346,256 L346,257 L347,257 L347,256 Z M1410,256 L1410,257 L1408,257 L1408,258 L1410,258 L1410,259 L1411,259 L1411,256 Z M31,259 L31,260 L30,260 L30,261 L32,261 L32,259 Z M181,260 L181,261 L184,261 L184,260 Z M325,260 L325,261 L326,261 L326,260 Z M1407,260 L1407,261 L1408,261 L1408,260 Z M1410,260 L1410,261 L1411,261 L1411,260 Z M28,262 L28,264 L30,264 L30,262 Z M1400,262 L1400,263 L1401,263 L1401,262 Z M1408,262 L1408,263 L1410,263 L1410,262 Z M24,263 L24,264 L25,264 L25,263 Z M421,263 L421,264 L420,264 L420,266 L419,266 L419,267 L420,267 L420,268 L415,268 L415,269 L417,269 L417,271 L419,271 L419,272 L418,272 L418,273 L419,273 L419,274 L421,274 L421,276 L420,276 L420,277 L423,277 L423,276 L424,276 L424,277 L426,277 L426,278 L432,278 L432,279 L431,279 L431,283 L432,283 L432,285 L431,285 L431,286 L432,286 L432,287 L431,287 L431,288 L432,288 L432,291 L464,291 L464,292 L466,292 L466,304 L469,304 L469,305 L471,305 L471,304 L487,304 L487,303 L488,303 L488,300 L489,300 L489,302 L490,302 L490,301 L491,301 L491,299 L490,299 L490,291 L465,291 L465,278 L442,278 L442,274 L441,274 L441,272 L442,272 L442,271 L441,271 L441,270 L442,270 L442,268 L441,268 L441,266 L442,266 L442,265 L441,265 L441,264 L424,264 L424,263 Z M848,264 L848,265 L847,265 L847,269 L846,269 L846,277 L817,277 L817,278 L805,278 L805,292 L792,292 L792,293 L795,293 L795,294 L793,294 L793,295 L792,295 L792,296 L793,296 L793,297 L792,297 L792,298 L793,298 L793,300 L792,300 L792,301 L793,301 L793,303 L792,303 L792,305 L824,305 L824,304 L833,304 L833,303 L831,303 L831,302 L832,302 L832,301 L833,301 L833,295 L832,295 L832,290 L857,290 L857,289 L858,289 L858,288 L857,288 L857,287 L858,287 L858,276 L859,276 L859,272 L860,272 L860,271 L859,271 L859,268 L860,268 L860,264 L851,264 L851,265 L849,265 L849,264 Z M1304,264 L1304,265 L1305,265 L1305,264 Z M289,265 L289,266 L292,266 L292,265 Z M406,265 L406,267 L407,267 L407,265 Z M416,265 L416,266 L417,266 L417,265 Z M222,266 L222,267 L224,267 L224,268 L226,268 L226,266 Z M762,266 L762,269 L763,269 L763,266 Z M1303,266 L1303,268 L1304,268 L1304,266 Z M396,267 L396,268 L397,268 L397,267 Z M1301,267 L1301,268 L1302,268 L1302,267 Z M334,268 L334,270 L335,270 L335,268 Z M296,269 L296,270 L297,270 L297,269 Z M392,269 L392,270 L393,270 L393,269 Z M396,269 L396,270 L400,270 L400,269 Z M765,269 L765,270 L766,270 L766,269 Z M758,270 L758,271 L759,271 L759,270 Z M763,270 L763,272 L764,272 L764,270 Z M1297,270 L1297,271 L1298,271 L1298,270 Z M1302,270 L1302,271 L1303,271 L1303,270 Z M408,271 L408,274 L409,274 L409,272 L410,272 L410,271 Z M415,271 L415,272 L416,272 L416,271 Z M335,272 L335,273 L336,273 L336,272 Z M343,272 L343,273 L344,273 L344,272 Z M386,272 L386,273 L387,273 L387,272 Z M389,272 L389,273 L391,273 L391,272 Z M403,272 L403,273 L405,273 L405,272 Z M416,273 L416,274 L417,274 L417,273 Z M1297,274 L1297,275 L1298,275 L1298,274 Z M1302,275 L1302,276 L1303,276 L1303,275 Z M1311,275 L1311,276 L1312,276 L1312,275 Z M1320,278 L1320,279 L1321,279 L1321,278 Z M183,279 L183,280 L184,280 L184,279 Z M1328,279 L1328,281 L1329,281 L1329,279 Z M1330,279 L1330,280 L1331,280 L1331,279 Z M1327,281 L1327,282 L1328,282 L1328,281 Z M183,282 L183,283 L184,283 L184,282 Z M330,283 L330,284 L331,284 L331,283 Z M335,284 L335,285 L336,285 L336,284 Z M1317,287 L1317,288 L1318,288 L1318,287 Z M190,289 L190,290 L192,290 L192,289 Z M304,291 L304,294 L305,294 L305,291 Z M352,291 L352,292 L353,292 L353,293 L356,293 L356,303 L384,303 L384,301 L385,301 L385,300 L387,300 L387,301 L388,301 L388,300 L389,300 L389,298 L390,298 L390,299 L391,299 L391,301 L392,301 L392,297 L391,297 L391,295 L389,295 L389,297 L388,297 L388,298 L387,298 L387,294 L385,294 L385,297 L384,297 L384,295 L380,295 L380,296 L379,296 L379,297 L376,297 L376,298 L375,298 L375,295 L376,295 L376,294 L372,294 L372,295 L367,295 L367,294 L365,294 L365,295 L364,295 L364,294 L360,294 L360,293 L362,293 L362,292 L367,292 L367,293 L368,293 L368,294 L370,294 L370,291 Z M372,291 L372,292 L379,292 L379,293 L381,293 L381,292 L380,292 L380,291 Z M650,291 L650,292 L651,292 L651,291 Z M656,291 L656,292 L657,292 L657,291 Z M384,292 L384,293 L395,293 L395,292 Z M653,293 L653,296 L654,296 L654,293 Z M655,293 L655,295 L656,295 L656,293 Z M353,294 L353,301 L354,301 L354,299 L355,299 L355,294 Z M377,294 L377,295 L379,295 L379,294 Z M650,294 L650,295 L651,295 L651,294 Z M659,294 L659,295 L660,295 L660,294 Z M1311,294 L1311,295 L1312,295 L1312,294 Z M1329,294 L1329,295 L1331,295 L1331,294 Z M257,295 L257,296 L258,296 L258,295 Z M392,295 L392,297 L394,297 L394,296 L395,296 L395,295 Z M397,295 L397,296 L395,296 L395,297 L399,297 L399,296 L400,296 L400,295 Z M1333,296 L1333,297 L1334,297 L1334,296 Z M285,297 L285,298 L286,298 L286,297 Z M650,297 L650,301 L651,301 L651,297 Z M653,297 L653,302 L654,302 L654,301 L656,301 L656,297 L655,297 L655,298 L654,298 L654,297 Z M195,298 L195,301 L196,301 L196,298 Z M257,298 L257,301 L258,301 L258,298 Z M395,298 L395,299 L394,299 L394,300 L396,300 L396,301 L393,301 L393,302 L400,302 L400,301 L399,301 L399,298 Z M285,299 L285,300 L286,300 L286,299 Z M316,299 L316,300 L318,300 L318,299 Z M659,299 L659,301 L660,301 L660,299 Z M1318,299 L1318,301 L1319,301 L1319,302 L1320,302 L1320,299 Z M1330,299 L1330,300 L1331,300 L1331,299 Z M1334,299 L1334,300 L1336,300 L1336,299 Z M657,300 L657,301 L658,301 L658,300 Z M1328,301 L1328,302 L1329,302 L1329,301 Z M256,302 L256,304 L257,304 L257,302 Z M385,302 L385,303 L386,303 L386,302 Z M388,302 L388,303 L389,303 L389,302 Z M656,302 L656,303 L658,303 L658,304 L659,304 L659,303 L660,303 L660,302 Z M488,303 L488,304 L490,304 L490,303 Z M286,304 L286,305 L287,305 L287,304 Z M398,304 L398,307 L397,307 L397,310 L399,310 L399,309 L400,309 L400,308 L399,308 L399,307 L400,307 L400,306 L399,306 L399,304 Z M495,304 L495,305 L496,305 L496,307 L493,307 L493,308 L496,308 L496,309 L491,309 L491,312 L496,312 L496,313 L490,313 L490,314 L491,314 L491,315 L493,315 L493,314 L495,314 L495,315 L496,315 L496,317 L505,317 L505,318 L506,318 L506,320 L507,320 L507,319 L509,319 L509,320 L510,320 L510,321 L509,321 L509,322 L507,322 L507,324 L508,324 L508,325 L509,325 L509,326 L506,326 L506,327 L507,327 L507,329 L509,329 L509,331 L513,331 L513,329 L514,329 L514,328 L515,328 L515,327 L518,327 L518,328 L516,328 L516,329 L525,329 L525,327 L526,327 L526,328 L527,328 L527,329 L528,329 L528,330 L533,330 L533,329 L532,329 L532,328 L535,328 L535,329 L536,329 L536,330 L544,330 L544,329 L548,329 L548,328 L551,328 L551,327 L552,327 L552,325 L555,325 L555,324 L559,324 L559,327 L560,327 L560,328 L561,328 L561,327 L564,327 L564,331 L563,331 L563,332 L562,332 L562,331 L559,331 L559,332 L560,332 L560,333 L564,333 L564,335 L563,335 L563,336 L566,336 L566,335 L567,335 L567,333 L565,333 L565,332 L567,332 L567,331 L568,331 L568,328 L569,328 L569,327 L568,327 L568,326 L569,326 L569,325 L568,325 L568,324 L569,324 L569,323 L568,323 L568,322 L566,322 L566,321 L567,321 L567,320 L565,320 L565,319 L562,319 L562,320 L560,320 L560,321 L552,321 L552,320 L550,320 L550,319 L549,319 L549,320 L546,320 L546,319 L536,319 L536,320 L535,320 L535,319 L529,319 L529,321 L533,321 L533,322 L532,322 L532,323 L533,323 L533,325 L534,325 L534,326 L532,326 L532,327 L529,327 L529,326 L531,326 L531,324 L528,324 L528,325 L527,325 L527,323 L530,323 L530,322 L528,322 L528,319 L520,319 L520,320 L519,320 L519,319 L518,319 L518,318 L516,318 L516,317 L517,317 L517,316 L516,316 L516,313 L517,313 L517,307 L516,307 L516,305 L515,305 L515,304 Z M63,305 L63,306 L62,306 L62,331 L61,331 L61,333 L50,333 L50,344 L51,344 L51,346 L50,346 L50,348 L51,348 L51,356 L50,356 L50,357 L51,357 L51,358 L50,358 L50,360 L49,360 L49,361 L39,361 L39,362 L37,362 L37,383 L38,383 L38,386 L40,386 L40,385 L41,385 L41,386 L76,386 L76,385 L77,385 L77,384 L80,384 L80,383 L82,383 L82,382 L84,382 L84,380 L86,380 L86,379 L87,379 L87,378 L88,378 L88,377 L89,377 L89,376 L90,376 L90,375 L100,375 L100,374 L101,374 L101,363 L102,363 L102,362 L111,362 L111,361 L112,361 L112,347 L102,347 L102,346 L101,346 L101,337 L100,337 L100,335 L101,335 L101,334 L90,334 L90,333 L89,333 L89,320 L88,320 L88,319 L76,319 L76,308 L75,308 L75,305 Z M392,305 L392,306 L394,306 L394,305 Z M431,306 L431,307 L430,307 L430,308 L429,308 L429,307 L427,307 L427,308 L426,308 L426,309 L424,309 L424,310 L425,310 L425,313 L426,313 L426,314 L425,314 L425,318 L417,318 L417,319 L419,319 L419,320 L414,320 L414,319 L411,319 L411,318 L409,318 L409,319 L410,319 L410,320 L411,320 L411,321 L410,321 L410,322 L413,322 L413,321 L416,321 L416,323 L410,323 L410,324 L409,324 L409,326 L408,326 L408,327 L409,327 L409,328 L411,328 L411,329 L409,329 L409,330 L413,330 L413,329 L412,329 L412,328 L413,328 L413,327 L414,327 L414,326 L413,326 L413,325 L416,325 L416,328 L418,328 L418,330 L419,330 L419,329 L421,329 L421,328 L422,328 L422,329 L431,329 L431,330 L424,330 L424,331 L422,331 L422,330 L420,330 L420,332 L464,332 L464,331 L448,331 L448,330 L460,330 L460,329 L457,329 L457,328 L456,328 L456,327 L459,327 L459,326 L460,326 L460,325 L463,325 L463,324 L459,324 L459,322 L457,322 L457,326 L456,326 L456,322 L455,322 L455,323 L454,323 L454,322 L453,322 L453,321 L452,321 L452,320 L454,320 L454,307 L453,307 L453,313 L452,313 L452,314 L451,314 L451,311 L452,311 L452,310 L451,310 L451,309 L448,309 L448,308 L447,308 L447,309 L445,309 L445,308 L444,308 L444,307 L432,307 L432,306 Z M583,306 L583,307 L584,307 L584,306 Z M402,307 L402,310 L400,310 L400,311 L394,311 L394,312 L396,312 L396,313 L394,313 L394,314 L396,314 L396,315 L400,315 L400,314 L401,314 L401,312 L402,312 L402,311 L405,311 L405,310 L403,310 L403,307 Z M451,307 L451,308 L452,308 L452,307 Z M470,307 L470,308 L472,308 L472,307 Z M490,307 L490,308 L491,308 L491,307 Z M1330,307 L1330,308 L1331,308 L1331,307 Z M1335,307 L1335,308 L1336,308 L1336,307 Z M1368,307 L1368,308 L1369,308 L1369,307 Z M1403,307 L1403,310 L1405,310 L1405,307 Z M1407,307 L1407,309 L1408,309 L1408,308 L1409,308 L1409,310 L1411,310 L1411,309 L1410,309 L1410,308 L1411,308 L1411,307 Z M405,308 L405,309 L406,309 L406,308 Z M207,309 L207,310 L208,310 L208,309 Z M721,310 L721,311 L722,311 L722,310 Z M469,311 L469,314 L471,314 L471,313 L470,313 L470,311 Z M1412,311 L1412,313 L1413,313 L1413,311 Z M1410,312 L1410,313 L1411,313 L1411,312 Z M584,313 L584,314 L586,314 L586,313 Z M1315,313 L1315,316 L1316,316 L1316,313 Z M1318,313 L1318,315 L1319,315 L1319,313 Z M1405,313 L1405,317 L1406,317 L1406,318 L1409,318 L1409,317 L1408,317 L1408,316 L1411,316 L1411,314 L1410,314 L1410,315 L1408,315 L1408,313 Z M1355,314 L1355,315 L1358,315 L1358,314 Z M1412,314 L1412,316 L1413,316 L1413,314 Z M400,315 L400,316 L401,316 L401,315 Z M392,316 L392,317 L393,317 L393,316 Z M407,316 L407,317 L408,317 L408,316 Z M469,316 L469,317 L470,317 L470,316 Z M592,317 L592,318 L594,318 L594,317 Z M1412,317 L1412,318 L1413,318 L1413,317 Z M406,318 L406,321 L408,321 L408,320 L407,320 L407,318 Z M818,319 L818,320 L806,320 L806,321 L808,321 L808,322 L806,322 L806,333 L807,333 L807,332 L809,332 L809,333 L834,333 L834,332 L835,332 L835,333 L838,333 L838,332 L841,332 L841,331 L840,331 L840,330 L841,330 L841,326 L842,326 L842,323 L844,323 L844,322 L843,322 L843,321 L845,321 L845,320 L844,320 L844,319 L843,319 L843,320 L841,320 L841,322 L840,322 L840,321 L832,321 L832,320 L840,320 L840,319 Z M845,319 L845,320 L846,320 L846,319 Z M454,320 L454,321 L456,321 L456,320 Z M464,320 L464,321 L465,321 L465,320 Z M568,320 L568,321 L571,321 L571,320 Z M614,320 L614,321 L615,321 L615,322 L616,322 L616,321 L617,321 L617,323 L615,323 L615,324 L614,324 L614,325 L616,325 L616,326 L617,326 L617,327 L614,327 L614,326 L613,326 L613,325 L611,325 L611,328 L609,328 L609,330 L608,330 L608,331 L607,331 L607,332 L612,332 L612,333 L614,333 L614,332 L615,332 L615,333 L616,333 L616,332 L617,332 L617,331 L616,331 L616,330 L619,330 L619,327 L620,327 L620,326 L622,326 L622,320 Z M363,321 L363,322 L368,322 L368,321 Z M506,321 L506,322 L507,322 L507,321 Z M845,321 L845,323 L846,323 L846,321 Z M376,322 L376,323 L377,323 L377,322 Z M360,323 L360,324 L361,324 L361,323 Z M375,323 L375,324 L376,324 L376,323 Z M406,323 L406,324 L408,324 L408,323 Z M464,323 L464,326 L465,326 L465,323 Z M367,324 L367,325 L368,325 L368,324 Z M843,324 L843,325 L845,325 L845,324 Z M360,325 L360,326 L364,326 L364,325 Z M370,325 L370,326 L369,326 L369,328 L368,328 L368,330 L369,330 L369,329 L370,329 L370,328 L371,328 L371,327 L372,327 L372,326 L375,326 L375,325 Z M571,325 L571,326 L572,326 L572,325 Z M356,327 L356,329 L357,329 L357,327 Z M360,327 L360,329 L361,329 L361,327 Z M406,327 L406,328 L407,328 L407,327 Z M460,327 L460,328 L463,328 L463,327 Z M554,327 L554,328 L555,328 L555,329 L556,329 L556,327 Z M654,327 L654,328 L655,328 L655,327 Z M842,327 L842,328 L843,328 L843,327 Z M288,329 L288,330 L289,330 L289,331 L290,331 L290,329 Z M353,329 L353,330 L354,330 L354,329 Z M562,329 L562,330 L563,330 L563,329 Z M571,329 L571,330 L572,330 L572,329 Z M407,330 L407,331 L408,331 L408,330 Z M507,330 L507,331 L508,331 L508,330 Z M523,330 L523,331 L524,331 L524,330 Z M527,330 L527,331 L528,331 L528,330 Z M546,330 L546,331 L545,331 L545,333 L548,333 L548,331 L547,331 L547,330 Z M356,331 L356,332 L357,332 L357,331 Z M408,331 L408,332 L416,332 L416,331 Z M528,331 L528,332 L544,332 L544,331 Z M597,331 L597,332 L598,332 L598,331 Z M599,331 L599,332 L600,332 L600,331 Z M618,331 L618,332 L617,332 L617,333 L619,333 L619,331 Z M842,331 L842,332 L843,332 L843,331 Z M844,331 L844,332 L845,332 L845,331 Z M551,332 L551,334 L552,334 L552,332 Z M555,333 L555,334 L557,334 L557,333 Z M574,333 L574,334 L576,334 L576,333 Z M376,334 L376,335 L377,335 L377,334 Z M264,335 L264,337 L265,337 L265,336 L266,336 L266,335 Z M365,337 L365,338 L366,338 L366,337 Z M569,337 L569,338 L568,338 L568,340 L569,340 L569,339 L570,339 L570,338 L571,338 L571,337 Z M575,337 L575,338 L572,338 L572,339 L576,339 L576,337 Z M633,338 L633,339 L634,339 L634,338 Z M265,339 L265,340 L267,340 L267,339 Z M377,339 L377,340 L379,340 L379,339 Z M553,339 L553,340 L555,340 L555,339 Z M183,340 L183,341 L184,341 L184,340 Z M277,340 L277,341 L278,341 L278,340 Z M365,340 L365,342 L366,342 L366,341 L367,341 L367,340 Z M269,341 L269,342 L270,342 L270,341 Z M560,341 L560,342 L561,342 L561,341 Z M564,341 L564,342 L565,342 L565,343 L567,343 L567,344 L568,344 L568,341 Z M569,341 L569,343 L575,343 L575,342 L572,342 L572,341 Z M575,341 L575,342 L576,342 L576,341 Z M263,342 L263,345 L264,345 L264,342 Z M367,342 L367,343 L368,343 L368,342 Z M552,342 L552,343 L557,343 L557,342 Z M437,343 L437,344 L436,344 L436,355 L453,355 L453,407 L452,407 L452,409 L453,409 L453,410 L452,410 L452,411 L464,411 L464,355 L479,355 L479,344 L478,344 L478,343 L476,343 L476,344 L475,344 L475,343 L473,343 L473,344 L448,344 L448,343 Z M487,343 L487,344 L486,344 L486,411 L498,411 L498,373 L514,373 L514,375 L513,375 L513,411 L525,411 L525,373 L518,373 L518,372 L519,372 L519,363 L498,363 L498,344 L497,344 L497,343 L496,343 L496,344 L488,344 L488,343 Z M896,343 L896,355 L908,355 L908,343 Z M265,344 L265,345 L267,345 L267,344 Z M383,344 L383,345 L384,345 L384,344 Z M551,344 L551,345 L552,345 L552,344 Z M555,344 L555,345 L557,345 L557,344 Z M559,344 L559,345 L560,345 L560,344 Z M570,344 L570,345 L573,345 L573,344 Z M856,343 L856,344 L851,344 L851,411 L863,411 L863,373 L878,373 L878,411 L890,411 L890,373 L883,373 L883,364 L863,364 L863,344 L862,344 L862,343 L861,343 L861,344 L860,344 L860,343 Z M365,345 L365,347 L366,347 L366,345 Z M367,345 L367,346 L368,346 L368,345 Z M182,347 L182,348 L183,348 L183,347 Z M370,350 L370,351 L372,351 L372,350 Z M395,350 L395,351 L397,351 L397,350 Z M392,352 L392,353 L393,353 L393,352 Z M397,352 L397,353 L395,353 L395,354 L398,354 L398,353 L399,353 L399,352 Z M415,354 L415,355 L416,355 L416,354 Z M410,356 L410,357 L411,357 L411,356 Z M404,358 L404,360 L406,360 L406,359 L407,359 L407,358 Z M366,359 L366,360 L367,360 L367,359 Z M400,359 L400,360 L401,360 L401,359 Z M408,359 L408,360 L409,360 L409,359 Z M411,359 L411,360 L414,360 L414,359 Z M391,360 L391,361 L392,361 L392,360 Z M423,361 L423,362 L424,362 L424,361 Z M248,362 L248,368 L249,368 L249,369 L248,369 L248,375 L232,375 L232,382 L233,382 L233,383 L232,383 L232,384 L233,384 L233,387 L264,387 L264,386 L271,386 L271,373 L270,373 L270,362 Z M282,362 L282,379 L283,379 L283,384 L284,384 L284,386 L320,386 L320,385 L321,385 L321,386 L340,386 L340,385 L344,385 L344,386 L350,386 L350,383 L351,383 L351,381 L350,381 L350,374 L346,374 L346,373 L343,373 L343,374 L301,374 L301,373 L300,373 L300,363 L299,363 L299,362 Z M416,363 L416,364 L417,364 L417,363 Z M540,364 L540,373 L533,373 L533,403 L540,403 L540,411 L565,411 L565,404 L571,404 L571,396 L569,396 L569,395 L568,395 L568,396 L561,396 L561,401 L560,401 L560,402 L544,402 L544,390 L571,390 L571,371 L565,371 L565,364 Z M608,363 L608,364 L604,364 L604,368 L603,368 L603,372 L596,372 L596,403 L604,403 L604,411 L628,411 L628,404 L635,404 L635,396 L625,396 L625,399 L624,399 L624,400 L625,400 L625,401 L624,401 L624,402 L608,402 L608,390 L634,390 L634,391 L635,391 L635,372 L632,372 L632,371 L631,371 L631,372 L629,372 L629,364 L627,364 L627,363 L626,363 L626,364 L616,364 L616,363 L614,363 L614,364 L610,364 L610,363 Z M646,363 L646,364 L644,364 L644,365 L642,365 L642,394 L643,394 L643,395 L647,395 L647,394 L648,394 L648,401 L652,401 L652,406 L653,406 L653,410 L659,410 L659,421 L644,421 L644,430 L660,430 L660,424 L669,424 L669,412 L668,412 L668,411 L669,411 L669,410 L675,410 L675,391 L681,391 L681,363 L670,363 L670,389 L665,389 L665,399 L661,399 L661,390 L659,390 L659,389 L655,389 L655,390 L654,390 L654,384 L653,384 L653,383 L654,383 L654,364 L647,364 L647,363 Z M714,363 L714,364 L695,364 L695,371 L688,371 L688,404 L696,404 L696,405 L695,405 L695,411 L720,411 L720,404 L726,404 L726,396 L716,396 L716,402 L699,402 L699,390 L726,390 L726,371 L720,371 L720,364 L719,364 L719,363 L717,363 L717,364 L716,364 L716,363 Z M740,364 L740,372 L734,372 L734,384 L739,384 L739,390 L746,390 L746,394 L740,394 L740,395 L734,395 L734,405 L740,405 L740,411 L763,411 L763,405 L768,405 L768,404 L769,404 L769,388 L768,388 L768,387 L758,387 L758,380 L767,380 L767,372 L766,372 L766,371 L761,371 L761,366 L758,366 L758,364 Z M815,364 L815,371 L814,371 L814,372 L807,372 L807,403 L815,403 L815,405 L814,405 L814,408 L815,408 L815,410 L814,410 L814,411 L815,411 L815,412 L816,412 L816,411 L832,411 L832,412 L839,412 L839,405 L845,405 L845,395 L844,395 L844,394 L843,394 L843,395 L833,395 L833,401 L832,401 L832,402 L819,402 L819,373 L833,373 L833,380 L834,380 L834,381 L844,381 L844,380 L845,380 L845,379 L844,379 L844,378 L845,378 L845,371 L844,371 L844,370 L840,370 L840,371 L839,371 L839,364 Z M896,364 L896,411 L908,411 L908,364 Z M923,364 L923,373 L915,373 L915,403 L922,403 L922,411 L946,411 L946,405 L952,405 L952,404 L953,404 L953,398 L952,398 L952,397 L953,397 L953,396 L952,396 L952,395 L941,395 L941,402 L927,402 L927,374 L926,374 L926,373 L942,373 L942,374 L941,374 L941,375 L942,375 L942,376 L941,376 L941,377 L942,377 L942,378 L941,378 L941,380 L944,380 L944,381 L953,381 L953,371 L946,371 L946,365 L947,365 L947,364 Z M967,364 L967,373 L960,373 L960,403 L962,403 L962,404 L963,404 L963,403 L966,403 L966,404 L967,404 L967,411 L991,411 L991,405 L997,405 L997,390 L998,390 L998,373 L991,373 L991,364 Z M396,369 L396,370 L400,370 L400,369 Z M143,374 L143,375 L140,375 L140,382 L141,382 L141,384 L140,384 L140,385 L141,385 L141,386 L143,386 L143,385 L144,385 L144,386 L151,386 L151,384 L153,384 L153,382 L152,382 L152,381 L153,381 L153,376 L152,376 L152,375 L144,375 L144,374 Z M1004,395 L1004,411 L1018,411 L1018,398 L1017,398 L1017,397 L1018,397 L1018,396 L1017,396 L1017,395 Z M776,396 L776,397 L774,397 L774,411 L780,411 L780,412 L779,412 L779,417 L775,417 L775,427 L781,427 L781,421 L785,421 L785,420 L786,420 L786,396 Z M466,437 L466,438 L459,438 L459,449 L477,449 L477,505 L488,505 L488,504 L489,504 L489,450 L488,450 L488,449 L505,449 L505,437 Z M512,437 L512,505 L523,505 L523,467 L540,467 L540,505 L551,505 L551,466 L545,466 L545,457 L524,457 L524,456 L523,456 L523,444 L524,444 L524,442 L523,442 L523,440 L524,440 L524,439 L523,439 L523,437 Z M909,437 L909,505 L921,505 L921,437 Z M932,437 L932,449 L944,449 L944,437 Z M566,457 L566,458 L565,458 L565,459 L566,459 L566,460 L565,460 L565,466 L563,466 L563,465 L559,465 L559,497 L567,497 L567,505 L591,505 L591,497 L592,497 L592,498 L598,498 L598,489 L588,489 L588,495 L571,495 L571,483 L572,483 L572,484 L598,484 L598,465 L591,465 L591,457 Z M674,457 L674,505 L686,505 L686,472 L692,472 L692,467 L701,467 L701,505 L712,505 L712,466 L705,466 L705,458 L704,458 L704,457 L690,457 L690,463 L686,463 L686,458 L685,458 L685,457 Z M815,457 L815,458 L814,458 L814,465 L808,465 L808,497 L815,497 L815,504 L816,504 L816,505 L840,505 L840,498 L841,498 L841,497 L843,497 L843,498 L844,498 L844,497 L847,497 L847,489 L836,489 L836,495 L819,495 L819,484 L847,484 L847,465 L840,465 L840,457 Z M871,457 L871,463 L866,463 L866,458 L855,458 L855,505 L866,505 L866,472 L872,472 L872,471 L873,471 L873,468 L872,468 L872,467 L884,467 L884,458 L883,458 L883,457 Z M932,457 L932,505 L944,505 L944,457 Z M957,457 L957,466 L952,466 L952,465 L951,465 L951,466 L950,466 L950,468 L951,468 L951,494 L950,494 L950,497 L958,497 L958,505 L983,505 L983,498 L990,498 L990,489 L979,489 L979,495 L962,495 L962,483 L963,483 L963,484 L989,484 L989,483 L990,483 L990,465 L989,465 L989,464 L983,464 L983,457 Z M632,457 L632,484 L628,484 L628,492 L624,492 L624,486 L623,486 L623,485 L624,485 L624,484 L617,484 L617,458 L605,458 L605,486 L606,486 L606,487 L610,487 L610,493 L609,493 L609,494 L610,494 L610,495 L615,495 L615,504 L621,504 L621,514 L604,514 L604,524 L622,524 L622,518 L630,518 L630,504 L638,504 L638,484 L644,484 L644,457 Z M728,458 L728,459 L727,459 L727,463 L728,463 L728,466 L720,466 L720,497 L728,497 L728,505 L753,505 L753,498 L754,498 L754,497 L759,497 L759,495 L760,495 L760,494 L759,494 L759,492 L760,492 L760,491 L759,491 L759,490 L760,490 L760,489 L749,489 L749,495 L732,495 L732,483 L734,483 L734,484 L759,484 L759,469 L760,469 L760,467 L759,467 L759,466 L760,466 L760,465 L752,465 L752,458 Z M797,457 L797,458 L791,458 L791,475 L786,475 L786,486 L782,486 L782,474 L777,474 L777,458 L765,458 L765,472 L766,472 L766,477 L767,477 L767,478 L768,478 L768,477 L770,477 L770,478 L772,478 L772,482 L773,482 L773,492 L779,492 L779,493 L780,493 L780,503 L779,503 L779,504 L780,504 L780,505 L789,505 L789,492 L796,492 L796,476 L803,476 L803,460 L804,460 L804,458 L803,458 L803,457 Z M997,489 L997,490 L996,490 L996,505 L1009,505 L1009,489 Z " fill="#000000" transform="translate(0,0)"/>
<path d="M0,0 L6,0 L6,4 L5,4 L5,1 L4,1 L4,6 L5,6 L5,5 L6,5 L6,7 L5,7 L5,8 L6,8 L6,9 L4,9 L4,8 L2,8 L2,9 L1,9 L1,7 L0,7 Z M1,4 L1,5 L3,5 L3,4 Z " fill="#000000" transform="translate(1263,0)"/>
<path d="M0,0 L2,0 L2,1 L3,1 L3,2 L5,2 L5,3 L2,3 L2,4 L3,4 L3,5 L7,5 L7,6 L1,6 L1,7 L5,7 L5,13 L1,13 L1,11 L2,11 L2,9 L0,9 L0,6 L-3,6 L-3,4 L-4,4 L-4,3 L-2,3 L-2,4 L-1,4 L-1,5 L1,5 L1,3 L0,3 Z " fill="#000000" transform="translate(607,40)"/>
<path d="M0,0 L40,0 L40,8 L41,8 L41,13 L53,13 L53,19 L54,19 L54,23 L55,23 L55,29 L67,29 L67,42 L66,42 L66,43 L65,43 L65,42 L62,42 L62,43 L57,43 L57,42 L56,42 L56,43 L54,43 L54,45 L53,45 L53,47 L54,47 L54,48 L53,48 L53,51 L54,51 L54,52 L52,52 L52,53 L53,53 L53,56 L45,56 L45,55 L44,55 L44,52 L43,52 L43,55 L41,55 L41,56 L40,56 L40,57 L39,57 L39,58 L38,58 L38,57 L37,57 L37,58 L29,58 L29,57 L28,57 L28,56 L27,56 L27,53 L16,53 L16,51 L15,51 L15,41 L5,41 L5,42 L4,42 L4,41 L1,41 L1,37 L0,37 L0,32 L1,32 L1,31 L0,31 L0,30 L1,30 L1,28 L0,28 L0,27 L1,27 L1,26 L16,26 L16,23 L17,23 L17,22 L16,22 L16,21 L17,21 L17,16 L16,16 L16,15 L17,15 L17,14 L1,14 L1,13 L-1,13 L-1,7 L0,7 Z M53,30 L53,31 L54,31 L54,30 Z M38,31 L38,32 L40,32 L40,31 Z M35,33 L35,34 L36,34 L36,35 L37,35 L37,34 L38,34 L38,33 Z M40,33 L40,34 L44,34 L44,33 Z M32,36 L32,37 L34,37 L34,36 Z M45,40 L45,42 L46,42 L46,40 Z M43,42 L43,43 L45,43 L45,42 Z M53,42 L53,43 L54,43 L54,42 Z M46,53 L46,54 L47,54 L47,55 L48,55 L48,53 Z " fill="#000000" transform="translate(283,126)"/>
<path d="M0,0 L12,0 L12,1 L23,1 L23,2 L17,2 L17,3 L16,3 L16,4 L17,4 L17,6 L18,6 L18,10 L16,10 L16,11 L24,11 L24,10 L25,10 L25,6 L26,6 L26,12 L25,12 L25,13 L26,13 L26,15 L23,15 L23,13 L22,13 L22,15 L13,15 L13,29 L-1,29 L-1,28 L0,28 Z M14,2 L14,3 L15,3 L15,2 Z M23,12 L23,13 L24,13 L24,12 Z M18,13 L18,14 L19,14 L19,13 Z " fill="#000000" transform="translate(153,139)"/>
<path d="M0,0 L1,0 L1,1 L3,1 L3,2 L4,2 L4,1 L5,1 L5,2 L7,2 L7,3 L8,3 L8,4 L7,4 L7,5 L6,5 L6,7 L5,7 L5,4 L3,4 L3,3 L0,3 Z " fill="#000000" transform="translate(59,160)"/>
<path d="M0,0 L3,0 L3,1 L2,1 L2,2 L6,2 L6,0 L8,0 L8,1 L12,1 L12,2 L14,2 L14,3 L16,3 L16,4 L14,4 L14,5 L5,5 L5,4 L2,4 L2,3 L1,3 L1,2 L0,2 Z M6,2 L6,3 L7,3 L7,4 L9,4 L9,3 L8,3 L8,2 Z " fill="#000000" transform="translate(32,162)"/>
<path d="M0,0 L3,0 L3,1 L4,1 L4,0 L7,0 L7,1 L6,1 L6,4 L4,4 L4,3 L2,3 L2,2 L-3,2 L-3,1 L0,1 Z " fill="#000000" transform="translate(51,162)"/>
<path d="M0,0 L3,0 L3,1 L4,1 L4,2 L-13,2 L-13,1 L0,1 Z " fill="#000000" transform="translate(72,191)"/>
<path d="M0,0 L1,0 L1,1 L2,1 L2,2 L1,2 L1,5 L0,5 L0,7 L-1,7 L-1,8 L-2,8 L-2,2 L-3,2 L-3,4 L-4,4 L-4,5 L-5,5 L-5,6 L-6,6 L-6,4 L-5,4 L-5,1 L0,1 Z " fill="#000000" transform="translate(93,196)"/>
<path d="M0,0 L13,0 L13,4 L14,4 L14,10 L13,10 L13,11 L14,11 L14,13 L13,13 L13,14 L10,14 L10,13 L9,13 L9,14 L8,14 L8,13 L7,13 L7,14 L0,14 Z " fill="#000000" transform="translate(258,208)"/>
<path d="M0,0 L3,0 L3,1 L8,1 L8,5 L0,5 L0,4 L-1,4 L-1,2 L-2,2 L-2,1 L0,1 Z M1,2 L1,3 L7,3 L7,2 Z " fill="#000000" transform="translate(536,320)"/>
<path d="M0,0 L5,0 L5,1 L3,1 L3,2 L2,2 L2,3 L4,3 L4,4 L-3,4 L-3,5 L-4,5 L-4,6 L-6,6 L-6,5 L-5,5 L-5,4 L-6,4 L-6,3 L-3,3 L-3,2 L-2,2 L-2,3 L1,3 L1,1 L0,1 Z " fill="#000000" transform="translate(547,323)"/>
<path d="M0,0 L17,0 L17,8 L0,8 Z " fill="#000000" transform="translate(544,373)"/>
<path d="M0,0 L17,0 L17,8 L0,8 Z " fill="#000000" transform="translate(608,373)"/>
<path d="M0,0 L17,0 L17,8 L0,8 Z " fill="#000000" transform="translate(699,373)"/>
<path d="M0,0 L3,0 L3,1 L14,1 L14,29 L0,29 L0,28 L-1,28 L-1,26 L0,26 Z " fill="#000000" transform="translate(972,373)"/>
<path d="M0,0 L10,0 L10,6 L0,6 L0,2 L-1,2 L-1,1 L0,1 Z " fill="#000000" transform="translate(747,374)"/>
<path d="M0,0 L1,0 L1,1 L4,1 L4,0 L8,0 L8,8 L-1,8 L-1,1 L0,1 Z " fill="#000000" transform="translate(748,394)"/>
<path d="M0,0 L16,0 L16,8 L13,8 L13,7 L0,7 Z " fill="#000000" transform="translate(571,467)"/>
<path d="M0,0 L17,0 L17,8 L0,8 Z " fill="#000000" transform="translate(732,467)"/>
<path d="M0,0 L17,0 L17,8 L13,8 L13,7 L8,7 L8,8 L6,8 L6,7 L5,7 L5,8 L1,8 L1,3 L0,3 Z " fill="#000000" transform="translate(819,467)"/>
<path d="M0,0 L17,0 L17,8 L9,8 L9,7 L0,7 Z " fill="#000000" transform="translate(962,467)"/>
</svg>
